<?xml version="1.0" encoding="UTF-8" standalone="no"?>
<svg
   version="1.1"
   width="1000px"
   height="181px"
   style="shape-rendering:geometricPrecision; text-rendering:geometricPrecision; image-rendering:optimizeQuality; fill-rule:evenodd; clip-rule:evenodd"
   id="svg1574"
   sodipodi:docname="auto-retroachievements.svg"
   inkscape:version="1.2.2 (732a01da63, 2022-12-09)"
   xmlns:inkscape="http://www.inkscape.org/namespaces/inkscape"
   xmlns:sodipodi="http://sodipodi.sourceforge.net/DTD/sodipodi-0.dtd"
   xmlns="http://www.w3.org/2000/svg"
   xmlns:svg="http://www.w3.org/2000/svg">
  <defs
     id="defs1578" />
  <sodipodi:namedview
     id="namedview1576"
     pagecolor="#ffffff"
     bordercolor="#000000"
     borderopacity="0.25"
     inkscape:showpageshadow="2"
     inkscape:pageopacity="0.0"
     inkscape:pagecheckerboard="0"
     inkscape:deskcolor="#d1d1d1"
     showgrid="false"
     inkscape:zoom="1.206"
     inkscape:cx="469.73466"
     inkscape:cy="90.381426"
     inkscape:window-width="1366"
     inkscape:window-height="705"
     inkscape:window-x="-8"
     inkscape:window-y="-8"
     inkscape:window-maximized="1"
     inkscape:current-layer="svg1574" />
  <g
     id="g1564"
     style="fill:#ffffff">
    <path
       style="opacity:1;fill:#ffffff"
       fill="#f9faf9"
       d="M 472.5,8.5 C 514.986,6.97421 556.32,13.1409 596.5,27C 614.939,35.2193 633.605,42.886 652.5,50C 684.552,59.1199 717.219,64.7865 750.5,67C 770.008,67.8948 789.508,68.7281 809,69.5C 848.724,65.4373 888.224,66.9373 927.5,74C 943.573,76.912 958.573,82.5787 972.5,91C 977,94.1667 980.833,98 984,102.5C 986.217,109.56 985.217,116.227 981,122.5C 972.27,134.799 960.77,143.632 946.5,149C 921.302,158.132 895.302,163.465 868.5,165C 622.167,165.667 375.833,165.667 129.5,165C 101.856,164.575 74.8556,160.242 48.5,152C 36.4398,147.893 25.9398,141.393 17,132.5C 9.34042,123.25 8.67376,113.584 15,103.5C 22.1008,95.3984 30.6008,89.2317 40.5,85C 63.3944,76.461 87.0611,71.461 111.5,70C 124.48,69.0204 137.48,68.5204 150.5,68.5C 189.535,70.255 228.535,69.755 267.5,67C 299,64.6335 329.666,58.3002 359.5,48C 373.398,41.1024 387.065,33.7691 400.5,26C 423.71,16.3633 447.71,10.5299 472.5,8.5 Z M 471.5,19.5 C 501.051,18.1538 530.385,19.9871 559.5,25C 570.765,27.4213 581.431,31.4213 591.5,37C 594.612,39.4391 596.945,42.4391 598.5,46C 596.331,52.838 591.998,57.838 585.5,61C 564.082,69.8245 541.749,74.4911 518.5,75C 489.289,76.7877 460.289,75.1211 431.5,70C 418.215,67.9099 406.215,62.9099 395.5,55C 391.733,49.959 391.566,44.7923 395,39.5C 402.771,33.2351 411.604,29.0684 421.5,27C 438.137,23.3406 454.803,20.8406 471.5,19.5 Z M 541.5,45.5 C 542.808,49.0187 542.808,52.6853 541.5,56.5C 540.242,52.7897 540.242,49.123 541.5,45.5 Z M 620.5,50.5 C 660.684,65.9704 702.351,74.4704 745.5,76C 788.5,76.3333 831.5,76.6667 874.5,77C 895.049,77.7099 915.049,81.3766 934.5,88C 946.737,91.9438 956.07,99.4438 962.5,110.5C 961.448,112.11 961.448,113.777 962.5,115.5C 959.51,123.659 954.177,129.826 946.5,134C 918.092,147.601 888.092,154.601 856.5,155C 780.319,155.677 703.986,156.511 627.5,157.5C 464.897,157.643 301.897,157.477 138.5,157C 112.863,156.272 87.8627,151.939 63.5,144C 52.9611,140.104 44.1278,133.938 37,125.5C 33.3295,117.854 34.3295,110.854 40,104.5C 50.2477,96.4033 61.7477,90.5699 74.5,87C 99.4185,80.5747 124.752,77.5747 150.5,78C 182.167,77.6667 213.833,77.3333 245.5,77C 284.535,76.091 322.535,69.4244 359.5,57C 363.542,55.2635 367.542,53.4301 371.5,51.5C 377.976,57.5757 385.31,62.409 393.5,66C 415.411,74.249 438.078,78.9156 461.5,80C 503.297,82.9669 544.631,79.9669 585.5,71C 599.106,67.2067 610.773,60.3734 620.5,50.5 Z M 109.5,101.5 C 127.17,101.333 144.836,101.5 162.5,102C 164.747,103.995 165.747,106.495 165.5,109.5C 145.833,109.5 126.167,109.5 106.5,109.5C 106.016,106.212 107.016,103.545 109.5,101.5 Z M 177.5,101.5 C 196.5,101.5 215.5,101.5 234.5,101.5C 234.5,104.167 234.5,106.833 234.5,109.5C 214.5,109.5 194.5,109.5 174.5,109.5C 174.722,106.496 175.722,103.829 177.5,101.5 Z M 243.5,101.5 C 248.167,101.5 252.833,101.5 257.5,101.5C 257.5,104.167 257.5,106.833 257.5,109.5C 252.833,109.5 248.167,109.5 243.5,109.5C 243.5,106.833 243.5,104.167 243.5,101.5 Z M 288.5,101.5 C 293.167,101.5 297.833,101.5 302.5,101.5C 302.5,104.167 302.5,106.833 302.5,109.5C 297.833,109.5 293.167,109.5 288.5,109.5C 288.5,106.833 288.5,104.167 288.5,101.5 Z M 312.5,101.5 C 316.833,101.5 321.167,101.5 325.5,101.5C 325.5,112.833 325.5,124.167 325.5,135.5C 321.167,135.5 316.833,135.5 312.5,135.5C 312.5,124.167 312.5,112.833 312.5,101.5 Z M 337.5,101.5 C 355.5,101.5 373.5,101.5 391.5,101.5C 391.5,104.167 391.5,106.833 391.5,109.5C 373.5,109.5 355.5,109.5 337.5,109.5C 337.5,106.833 337.5,104.167 337.5,101.5 Z M 401.5,101.5 C 406.844,101.334 412.177,101.501 417.5,102C 419.167,104.333 420.833,106.667 422.5,109C 416.804,109.83 411.137,109.663 405.5,108.5C 403.89,106.275 402.557,103.941 401.5,101.5 Z M 451.5,101.5 C 456.844,101.334 462.177,101.501 467.5,102C 465.833,104.333 464.167,106.667 462.5,109C 457.167,109.667 451.833,109.667 446.5,109C 448.301,106.557 449.968,104.057 451.5,101.5 Z M 477.5,101.5 C 495.5,101.5 513.5,101.5 531.5,101.5C 531.5,104.167 531.5,106.833 531.5,109.5C 513.5,109.5 495.5,109.5 477.5,109.5C 477.5,106.833 477.5,104.167 477.5,101.5 Z M 539.5,101.5 C 567.169,101.333 594.835,101.5 622.5,102C 623.786,104.022 624.786,106.189 625.5,108.5C 596.841,109.5 568.174,109.833 539.5,109.5C 539.5,106.833 539.5,104.167 539.5,101.5 Z M 634.5,101.5 C 652.5,101.5 670.5,101.5 688.5,101.5C 688.5,104.167 688.5,106.833 688.5,109.5C 670.5,109.5 652.5,109.5 634.5,109.5C 634.5,106.833 634.5,104.167 634.5,101.5 Z M 697.5,101.5 C 716.17,101.333 734.836,101.5 753.5,102C 755.747,103.995 756.747,106.495 756.5,109.5C 736.833,109.5 717.167,109.5 697.5,109.5C 697.5,106.833 697.5,104.167 697.5,101.5 Z M 765.5,101.5 C 783.5,101.5 801.5,101.5 819.5,101.5C 819.5,104.167 819.5,106.833 819.5,109.5C 801.5,109.5 783.5,109.5 765.5,109.5C 765.5,106.833 765.5,104.167 765.5,101.5 Z M 834.5,101.5 C 852.167,101.5 869.833,101.5 887.5,101.5C 887.5,104.167 887.5,106.833 887.5,109.5C 868.833,109.5 850.167,109.5 831.5,109.5C 831.016,106.212 832.016,103.545 834.5,101.5 Z M 913.5,102.5 C 922.237,101.253 927.237,104.919 928.5,113.5C 922.592,113.685 916.592,113.851 910.5,114C 909.5,114.5 908.5,115 907.5,115.5C 906.359,113.579 906.192,111.579 907,109.5C 908.694,106.642 910.861,104.309 913.5,102.5 Z M 75.5,105.5 C 83.2607,105.269 87.594,108.935 88.5,116.5C 81.2255,117.348 74.0588,117.348 67,116.5C 66.973,110.687 69.8064,107.02 75.5,105.5 Z M 106.5,112.5 C 110.846,112.334 115.179,112.501 119.5,113C 120.833,120.333 120.833,127.667 119.5,135C 115.179,135.499 110.846,135.666 106.5,135.5C 106.5,127.833 106.5,120.167 106.5,112.5 Z M 152.5,112.5 C 156.833,112.5 161.167,112.5 165.5,112.5C 165.5,120.167 165.5,127.833 165.5,135.5C 161.154,135.666 156.821,135.499 152.5,135C 151.594,133.301 151.261,131.467 151.5,129.5C 142.167,129.5 132.833,129.5 123.5,129.5C 123.5,126.833 123.5,124.167 123.5,121.5C 132.833,121.5 142.167,121.5 151.5,121.5C 151.264,118.391 151.597,115.391 152.5,112.5 Z M 174.5,112.5 C 179.167,112.5 183.833,112.5 188.5,112.5C 188.197,117.43 188.531,122.263 189.5,127C 204.496,127.5 219.496,127.667 234.5,127.5C 234.768,130.119 234.435,132.619 233.5,135C 215.167,135.667 196.833,135.667 178.5,135C 176.741,133.992 175.574,132.492 175,130.5C 174.501,124.509 174.334,118.509 174.5,112.5 Z M 243.5,112.5 C 248.167,112.5 252.833,112.5 257.5,112.5C 257.5,120.167 257.5,127.833 257.5,135.5C 252.833,135.5 248.167,135.5 243.5,135.5C 243.5,127.833 243.5,120.167 243.5,112.5 Z M 289.5,112.5 C 293.833,112.5 298.167,112.5 302.5,112.5C 302.5,120.167 302.5,127.833 302.5,135.5C 298.154,135.666 293.821,135.499 289.5,135C 288.594,133.301 288.261,131.467 288.5,129.5C 279.167,129.5 269.833,129.5 260.5,129.5C 260.5,126.833 260.5,124.167 260.5,121.5C 269.833,121.5 279.167,121.5 288.5,121.5C 288.264,118.391 288.597,115.391 289.5,112.5 Z M 337.5,112.5 C 342.167,112.5 346.833,112.5 351.5,112.5C 351.5,113.5 351.5,114.5 351.5,115.5C 363.833,115.5 376.167,115.5 388.5,115.5C 388.5,118.167 388.5,120.833 388.5,123.5C 376.167,123.5 363.833,123.5 351.5,123.5C 351.33,124.822 351.663,125.989 352.5,127C 365.496,127.5 378.496,127.667 391.5,127.5C 391.5,130.167 391.5,132.833 391.5,135.5C 374.83,135.667 358.163,135.5 341.5,135C 339.667,134.5 338.5,133.333 338,131.5C 337.5,125.175 337.334,118.842 337.5,112.5 Z M 409.5,113.5 C 414.65,112.349 419.984,112.183 425.5,113C 428.128,117.758 431.128,122.258 434.5,126.5C 437.376,121.914 440.376,117.414 443.5,113C 448.833,112.333 454.167,112.333 459.5,113C 454.833,120.333 450.167,127.667 445.5,135C 438.167,135.667 430.833,135.667 423.5,135C 418.685,127.854 414.018,120.687 409.5,113.5 Z M 477.5,112.5 C 482.167,112.5 486.833,112.5 491.5,112.5C 491.5,113.5 491.5,114.5 491.5,115.5C 503.833,115.5 516.167,115.5 528.5,115.5C 528.5,118.167 528.5,120.833 528.5,123.5C 516.167,123.5 503.833,123.5 491.5,123.5C 491.33,124.822 491.663,125.989 492.5,127C 505.496,127.5 518.496,127.667 531.5,127.5C 531.5,130.167 531.5,132.833 531.5,135.5C 514.83,135.667 498.163,135.5 481.5,135C 479.667,134.5 478.5,133.333 478,131.5C 477.5,125.175 477.334,118.842 477.5,112.5 Z M 539.5,112.5 C 544.167,112.5 548.833,112.5 553.5,112.5C 553.5,120.167 553.5,127.833 553.5,135.5C 548.833,135.5 544.167,135.5 539.5,135.5C 539.5,127.833 539.5,120.167 539.5,112.5 Z M 574.5,112.5 C 579.099,112.2 583.599,112.533 588,113.5C 588.812,120.747 588.646,127.914 587.5,135C 583.129,135.828 578.795,135.661 574.5,134.5C 573.725,127.097 573.725,119.764 574.5,112.5 Z M 611.5,112.5 C 616.167,112.5 620.833,112.5 625.5,112.5C 625.5,120.167 625.5,127.833 625.5,135.5C 620.833,135.5 616.167,135.5 611.5,135.5C 611.5,127.833 611.5,120.167 611.5,112.5 Z M 634.5,112.5 C 639.214,112.173 643.88,112.507 648.5,113.5C 648.709,114.086 649.043,114.586 649.5,115C 661.495,115.5 673.495,115.667 685.5,115.5C 685.5,118.167 685.5,120.833 685.5,123.5C 673.167,123.5 660.833,123.5 648.5,123.5C 648.33,124.822 648.663,125.989 649.5,127C 662.496,127.5 675.496,127.667 688.5,127.5C 688.5,130.167 688.5,132.833 688.5,135.5C 671.83,135.667 655.163,135.5 638.5,135C 636.667,134.5 635.5,133.333 635,131.5C 634.5,125.175 634.334,118.842 634.5,112.5 Z M 697.5,112.5 C 701.833,112.5 706.167,112.5 710.5,112.5C 710.5,120.167 710.5,127.833 710.5,135.5C 706.167,135.5 701.833,135.5 697.5,135.5C 697.5,127.833 697.5,120.167 697.5,112.5 Z M 742.5,112.5 C 747.167,112.5 751.833,112.5 756.5,112.5C 756.5,120.167 756.5,127.833 756.5,135.5C 751.833,135.5 747.167,135.5 742.5,135.5C 742.5,127.833 742.5,120.167 742.5,112.5 Z M 785.5,112.5 C 790.167,112.5 794.833,112.5 799.5,112.5C 799.5,120.167 799.5,127.833 799.5,135.5C 794.833,135.5 790.167,135.5 785.5,135.5C 785.5,127.833 785.5,120.167 785.5,112.5 Z M 831.5,112.5 C 835.846,112.334 840.179,112.501 844.5,113C 844.957,113.414 845.291,113.914 845.5,114.5C 858.487,115.333 871.487,115.833 884.5,116C 889.278,117.543 891.278,120.876 890.5,126C 891.222,130.028 889.889,133.028 886.5,135C 868.17,135.5 849.836,135.667 831.5,135.5C 831.5,132.833 831.5,130.167 831.5,127.5C 846.17,127.667 860.837,127.5 875.5,127C 876.833,126 876.833,125 875.5,124C 861.833,123.667 848.167,123.333 834.5,123C 833.333,122.5 832.5,121.667 832,120.5C 831.503,117.854 831.336,115.187 831.5,112.5 Z M 919.5,116.5 C 922.572,116.183 925.572,116.516 928.5,117.5C 922.22,127.633 915.22,128.133 907.5,119C 911.573,117.971 915.573,117.138 919.5,116.5 Z M 66.5,119.5 C 73.9385,120.358 81.2718,120.692 88.5,120.5C 84.9505,128.218 79.2838,130.385 71.5,127C 68.8002,125.143 67.1335,122.643 66.5,119.5 Z"
       id="path1562" />
  </g>
  <g
     id="g1568"
     style="fill:#ffffff">
    <path
       style="opacity:1;fill:#ffffff"
       fill="#f9faf9"
       d="M 533.5,66.5 C 529.689,67.6453 525.689,67.8119 521.5,67C 520.126,64.4171 518.626,61.9171 517,59.5C 516.503,62.146 516.336,64.8127 516.5,67.5C 512.833,66.1667 509.167,66.1667 505.5,67.5C 505.5,60.1667 505.5,52.8333 505.5,45.5C 503.5,45.5 501.5,45.5 499.5,45.5C 499.5,52.8333 499.5,60.1667 499.5,67.5C 495.833,67.5 492.167,67.5 488.5,67.5C 488.5,60.1667 488.5,52.8333 488.5,45.5C 485.458,46.5411 482.458,46.5411 479.5,45.5C 479.5,49.1667 479.5,52.8333 479.5,56.5C 480.5,56.5 481.5,56.5 482.5,56.5C 482.5,60.1667 482.5,63.8333 482.5,67.5C 475.952,68.032 469.618,67.3653 463.5,65.5C 461.952,66.7943 459.952,67.4609 457.5,67.5C 455.5,67.3333 453.5,67.1667 451.5,67C 450.126,64.4171 448.626,61.9171 447,59.5C 446.503,62.146 446.336,64.8127 446.5,67.5C 442.833,67.5 439.167,67.5 435.5,67.5C 435.467,56.6508 435.634,45.9841 436,35.5C 442.17,34.1099 448.337,34.2765 454.5,36C 460.29,41.4473 460.957,47.4473 456.5,54C 457.794,56.087 458.961,58.2537 460,60.5C 460.333,53.8333 460.667,47.1667 461,40.5C 462.251,37.6193 464.417,35.786 467.5,35C 485.5,34.3333 503.5,34.3333 521.5,35C 530.003,39.626 531.669,46.126 526.5,54.5C 527.467,56.6297 528.634,58.6297 530,60.5C 530.103,52.7559 530.769,45.0892 532,37.5C 537.844,34.1494 544.01,33.6494 550.5,36C 551.893,37.1711 552.727,38.6711 553,40.5C 553.901,48.5788 553.568,56.5788 552,64.5C 551.097,65.7014 549.931,66.5348 548.5,67C 543.448,67.7258 538.448,67.5591 533.5,66.5 Z M 541.5,45.5 C 540.242,49.123 540.242,52.7897 541.5,56.5C 542.808,52.6853 542.808,49.0187 541.5,45.5 Z"
       id="path1566" />
  </g>
  <g
     id="g1572"
     style="fill:#ffffff">
    <path
       style="opacity:1;fill:#ffffff"
       fill="#f9faf9"
       d="M 852.5,83.5 C 876.154,82.9502 899.154,86.4502 921.5,94C 948.013,107.142 948.013,120.475 921.5,134C 905.396,140.192 888.73,143.859 871.5,145C 855.607,145.865 839.774,146.698 824,147.5C 823.667,147.167 823.333,146.833 823,146.5C 633.199,148.013 443.366,149.013 253.5,149.5C 211.13,149.574 168.463,149.074 125.5,148C 102.963,147.784 81.9625,142.117 62.5,131C 53.8765,124.796 52.3765,117.296 58,108.5C 61.2102,104.813 65.0435,101.979 69.5,100C 86.4697,93.008 104.136,89.008 122.5,88C 365.802,86.3631 609.136,84.8631 852.5,83.5 Z M 109.5,101.5 C 107.016,103.545 106.016,106.212 106.5,109.5C 126.167,109.5 145.833,109.5 165.5,109.5C 165.747,106.495 164.747,103.995 162.5,102C 144.836,101.5 127.17,101.333 109.5,101.5 Z M 177.5,101.5 C 175.722,103.829 174.722,106.496 174.5,109.5C 194.5,109.5 214.5,109.5 234.5,109.5C 234.5,106.833 234.5,104.167 234.5,101.5C 215.5,101.5 196.5,101.5 177.5,101.5 Z M 243.5,101.5 C 243.5,104.167 243.5,106.833 243.5,109.5C 248.167,109.5 252.833,109.5 257.5,109.5C 257.5,106.833 257.5,104.167 257.5,101.5C 252.833,101.5 248.167,101.5 243.5,101.5 Z M 288.5,101.5 C 288.5,104.167 288.5,106.833 288.5,109.5C 293.167,109.5 297.833,109.5 302.5,109.5C 302.5,106.833 302.5,104.167 302.5,101.5C 297.833,101.5 293.167,101.5 288.5,101.5 Z M 312.5,101.5 C 312.5,112.833 312.5,124.167 312.5,135.5C 316.833,135.5 321.167,135.5 325.5,135.5C 325.5,124.167 325.5,112.833 325.5,101.5C 321.167,101.5 316.833,101.5 312.5,101.5 Z M 337.5,101.5 C 337.5,104.167 337.5,106.833 337.5,109.5C 355.5,109.5 373.5,109.5 391.5,109.5C 391.5,106.833 391.5,104.167 391.5,101.5C 373.5,101.5 355.5,101.5 337.5,101.5 Z M 401.5,101.5 C 402.557,103.941 403.89,106.275 405.5,108.5C 411.137,109.663 416.804,109.83 422.5,109C 420.833,106.667 419.167,104.333 417.5,102C 412.177,101.501 406.844,101.334 401.5,101.5 Z M 451.5,101.5 C 449.968,104.057 448.301,106.557 446.5,109C 451.833,109.667 457.167,109.667 462.5,109C 464.167,106.667 465.833,104.333 467.5,102C 462.177,101.501 456.844,101.334 451.5,101.5 Z M 477.5,101.5 C 477.5,104.167 477.5,106.833 477.5,109.5C 495.5,109.5 513.5,109.5 531.5,109.5C 531.5,106.833 531.5,104.167 531.5,101.5C 513.5,101.5 495.5,101.5 477.5,101.5 Z M 539.5,101.5 C 539.5,104.167 539.5,106.833 539.5,109.5C 568.174,109.833 596.841,109.5 625.5,108.5C 624.786,106.189 623.786,104.022 622.5,102C 594.835,101.5 567.169,101.333 539.5,101.5 Z M 634.5,101.5 C 634.5,104.167 634.5,106.833 634.5,109.5C 652.5,109.5 670.5,109.5 688.5,109.5C 688.5,106.833 688.5,104.167 688.5,101.5C 670.5,101.5 652.5,101.5 634.5,101.5 Z M 697.5,101.5 C 697.5,104.167 697.5,106.833 697.5,109.5C 717.167,109.5 736.833,109.5 756.5,109.5C 756.747,106.495 755.747,103.995 753.5,102C 734.836,101.5 716.17,101.333 697.5,101.5 Z M 765.5,101.5 C 765.5,104.167 765.5,106.833 765.5,109.5C 783.5,109.5 801.5,109.5 819.5,109.5C 819.5,106.833 819.5,104.167 819.5,101.5C 801.5,101.5 783.5,101.5 765.5,101.5 Z M 834.5,101.5 C 832.016,103.545 831.016,106.212 831.5,109.5C 850.167,109.5 868.833,109.5 887.5,109.5C 887.5,106.833 887.5,104.167 887.5,101.5C 869.833,101.5 852.167,101.5 834.5,101.5 Z M 913.5,102.5 C 910.861,104.309 908.694,106.642 907,109.5C 906.192,111.579 906.359,113.579 907.5,115.5C 908.5,115 909.5,114.5 910.5,114C 916.592,113.851 922.592,113.685 928.5,113.5C 927.237,104.919 922.237,101.253 913.5,102.5 Z M 75.5,105.5 C 69.8064,107.02 66.973,110.687 67,116.5C 74.0588,117.348 81.2255,117.348 88.5,116.5C 87.594,108.935 83.2607,105.269 75.5,105.5 Z M 106.5,112.5 C 106.5,120.167 106.5,127.833 106.5,135.5C 110.846,135.666 115.179,135.499 119.5,135C 120.833,127.667 120.833,120.333 119.5,113C 115.179,112.501 110.846,112.334 106.5,112.5 Z M 152.5,112.5 C 151.597,115.391 151.264,118.391 151.5,121.5C 142.167,121.5 132.833,121.5 123.5,121.5C 123.5,124.167 123.5,126.833 123.5,129.5C 132.833,129.5 142.167,129.5 151.5,129.5C 151.261,131.467 151.594,133.301 152.5,135C 156.821,135.499 161.154,135.666 165.5,135.5C 165.5,127.833 165.5,120.167 165.5,112.5C 161.167,112.5 156.833,112.5 152.5,112.5 Z M 174.5,112.5 C 174.334,118.509 174.501,124.509 175,130.5C 175.574,132.492 176.741,133.992 178.5,135C 196.833,135.667 215.167,135.667 233.5,135C 234.435,132.619 234.768,130.119 234.5,127.5C 219.496,127.667 204.496,127.5 189.5,127C 188.531,122.263 188.197,117.43 188.5,112.5C 183.833,112.5 179.167,112.5 174.5,112.5 Z M 243.5,112.5 C 243.5,120.167 243.5,127.833 243.5,135.5C 248.167,135.5 252.833,135.5 257.5,135.5C 257.5,127.833 257.5,120.167 257.5,112.5C 252.833,112.5 248.167,112.5 243.5,112.5 Z M 289.5,112.5 C 288.597,115.391 288.264,118.391 288.5,121.5C 279.167,121.5 269.833,121.5 260.5,121.5C 260.5,124.167 260.5,126.833 260.5,129.5C 269.833,129.5 279.167,129.5 288.5,129.5C 288.261,131.467 288.594,133.301 289.5,135C 293.821,135.499 298.154,135.666 302.5,135.5C 302.5,127.833 302.5,120.167 302.5,112.5C 298.167,112.5 293.833,112.5 289.5,112.5 Z M 337.5,112.5 C 337.334,118.842 337.5,125.175 338,131.5C 338.5,133.333 339.667,134.5 341.5,135C 358.163,135.5 374.83,135.667 391.5,135.5C 391.5,132.833 391.5,130.167 391.5,127.5C 378.496,127.667 365.496,127.5 352.5,127C 351.663,125.989 351.33,124.822 351.5,123.5C 363.833,123.5 376.167,123.5 388.5,123.5C 388.5,120.833 388.5,118.167 388.5,115.5C 376.167,115.5 363.833,115.5 351.5,115.5C 351.5,114.5 351.5,113.5 351.5,112.5C 346.833,112.5 342.167,112.5 337.5,112.5 Z M 409.5,113.5 C 414.018,120.687 418.685,127.854 423.5,135C 430.833,135.667 438.167,135.667 445.5,135C 450.167,127.667 454.833,120.333 459.5,113C 454.167,112.333 448.833,112.333 443.5,113C 440.376,117.414 437.376,121.914 434.5,126.5C 431.128,122.258 428.128,117.758 425.5,113C 419.984,112.183 414.65,112.349 409.5,113.5 Z M 477.5,112.5 C 477.334,118.842 477.5,125.175 478,131.5C 478.5,133.333 479.667,134.5 481.5,135C 498.163,135.5 514.83,135.667 531.5,135.5C 531.5,132.833 531.5,130.167 531.5,127.5C 518.496,127.667 505.496,127.5 492.5,127C 491.663,125.989 491.33,124.822 491.5,123.5C 503.833,123.5 516.167,123.5 528.5,123.5C 528.5,120.833 528.5,118.167 528.5,115.5C 516.167,115.5 503.833,115.5 491.5,115.5C 491.5,114.5 491.5,113.5 491.5,112.5C 486.833,112.5 482.167,112.5 477.5,112.5 Z M 539.5,112.5 C 539.5,120.167 539.5,127.833 539.5,135.5C 544.167,135.5 548.833,135.5 553.5,135.5C 553.5,127.833 553.5,120.167 553.5,112.5C 548.833,112.5 544.167,112.5 539.5,112.5 Z M 574.5,112.5 C 573.725,119.764 573.725,127.097 574.5,134.5C 578.795,135.661 583.129,135.828 587.5,135C 588.646,127.914 588.812,120.747 588,113.5C 583.599,112.533 579.099,112.2 574.5,112.5 Z M 611.5,112.5 C 611.5,120.167 611.5,127.833 611.5,135.5C 616.167,135.5 620.833,135.5 625.5,135.5C 625.5,127.833 625.5,120.167 625.5,112.5C 620.833,112.5 616.167,112.5 611.5,112.5 Z M 634.5,112.5 C 634.334,118.842 634.5,125.175 635,131.5C 635.5,133.333 636.667,134.5 638.5,135C 655.163,135.5 671.83,135.667 688.5,135.5C 688.5,132.833 688.5,130.167 688.5,127.5C 675.496,127.667 662.496,127.5 649.5,127C 648.663,125.989 648.33,124.822 648.5,123.5C 660.833,123.5 673.167,123.5 685.5,123.5C 685.5,120.833 685.5,118.167 685.5,115.5C 673.495,115.667 661.495,115.5 649.5,115C 649.043,114.586 648.709,114.086 648.5,113.5C 643.88,112.507 639.214,112.173 634.5,112.5 Z M 697.5,112.5 C 697.5,120.167 697.5,127.833 697.5,135.5C 701.833,135.5 706.167,135.5 710.5,135.5C 710.5,127.833 710.5,120.167 710.5,112.5C 706.167,112.5 701.833,112.5 697.5,112.5 Z M 742.5,112.5 C 742.5,120.167 742.5,127.833 742.5,135.5C 747.167,135.5 751.833,135.5 756.5,135.5C 756.5,127.833 756.5,120.167 756.5,112.5C 751.833,112.5 747.167,112.5 742.5,112.5 Z M 785.5,112.5 C 785.5,120.167 785.5,127.833 785.5,135.5C 790.167,135.5 794.833,135.5 799.5,135.5C 799.5,127.833 799.5,120.167 799.5,112.5C 794.833,112.5 790.167,112.5 785.5,112.5 Z M 831.5,112.5 C 831.336,115.187 831.503,117.854 832,120.5C 832.5,121.667 833.333,122.5 834.5,123C 848.167,123.333 861.833,123.667 875.5,124C 876.833,125 876.833,126 875.5,127C 860.837,127.5 846.17,127.667 831.5,127.5C 831.5,130.167 831.5,132.833 831.5,135.5C 849.836,135.667 868.17,135.5 886.5,135C 889.889,133.028 891.222,130.028 890.5,126C 891.278,120.876 889.278,117.543 884.5,116C 871.487,115.833 858.487,115.333 845.5,114.5C 845.291,113.914 844.957,113.414 844.5,113C 840.179,112.501 835.846,112.334 831.5,112.5 Z M 919.5,116.5 C 915.573,117.138 911.573,117.971 907.5,119C 915.22,128.133 922.22,127.633 928.5,117.5C 925.572,116.516 922.572,116.183 919.5,116.5 Z M 66.5,119.5 C 67.1335,122.643 68.8002,125.143 71.5,127C 79.2838,130.385 84.9505,128.218 88.5,120.5C 81.2718,120.692 73.9385,120.358 66.5,119.5 Z"
       id="path1570" />
  </g>
</svg>
