<?xml version="1.0" encoding="UTF-8" standalone="no"?>
<svg
   version="1.1"
   width="1000px"
   height="391px"
   style="shape-rendering:geometricPrecision; text-rendering:geometricPrecision; image-rendering:optimizeQuality; fill-rule:evenodd; clip-rule:evenodd"
   id="svg1235"
   sodipodi:docname="auto-at2players.svg"
   inkscape:version="1.2.2 (732a01da63, 2022-12-09)"
   xmlns:inkscape="http://www.inkscape.org/namespaces/inkscape"
   xmlns:sodipodi="http://sodipodi.sourceforge.net/DTD/sodipodi-0.dtd"
   xmlns="http://www.w3.org/2000/svg"
   xmlns:svg="http://www.w3.org/2000/svg">
  <defs
     id="defs1239" />
  <sodipodi:namedview
     id="namedview1237"
     pagecolor="#ffffff"
     bordercolor="#000000"
     borderopacity="0.25"
     inkscape:showpageshadow="2"
     inkscape:pageopacity="0.0"
     inkscape:pagecheckerboard="0"
     inkscape:deskcolor="#d1d1d1"
     showgrid="false"
     inkscape:zoom="1.206"
     inkscape:cx="469.73466"
     inkscape:cy="195.68823"
     inkscape:window-width="1366"
     inkscape:window-height="705"
     inkscape:window-x="-8"
     inkscape:window-y="-8"
     inkscape:window-maximized="1"
     inkscape:current-layer="svg1235" />
  <g
     id="g1185"
     style="fill:#ffffff">
    <path
       style="opacity:1;fill:#ffffff"
       fill="#f9faf9"
       d="M 21.5,79.5 C 22.4916,79.6716 23.1583,79.3382 23.5,78.5C 26.1667,78.1667 26.1667,77.8333 23.5,77.5C 25.6453,76.0216 27.9787,74.6882 30.5,73.5C 31.6956,73.8457 31.6956,74.3457 30.5,75C 31.1667,75.6667 31.8333,75.6667 32.5,75C 33.0712,73.7949 33.7379,72.6283 34.5,71.5C 34.8333,72.1667 35.1667,72.8333 35.5,73.5C 37.8241,73.1227 38.4908,72.1227 37.5,70.5C 38,70.1667 38.5,69.8333 39,69.5C 40.0105,69.8919 40.5105,70.5585 40.5,71.5C 42.3559,70.3703 43.8559,69.037 45,67.5C 46.2259,67.6448 47.3926,67.9781 48.5,68.5C 63.7808,63.5967 79.4474,61.0967 95.5,61C 127.534,65.367 146.034,83.5337 151,115.5C 153.677,136.127 149.344,155.127 138,172.5C 120.437,196.934 101.437,220.268 81,242.5C 76.456,248.424 72.2894,254.591 68.5,261C 70.0158,262.927 72.0158,264.094 74.5,264.5C 83.1829,262.063 91.8496,259.563 100.5,257C 100.167,256.667 99.8333,256.333 99.5,256C 101.527,255.502 103.527,255.669 105.5,256.5C 112.457,254.511 119.457,252.677 126.5,251C 128.263,247.627 130.597,246.961 133.5,249C 131.307,251.025 130.307,253.525 130.5,256.5C 132.484,256.383 134.15,257.05 135.5,258.5C 136.842,256.995 138.508,256.328 140.5,256.5C 140.038,261.162 139.538,265.829 139,270.5C 138.31,273.196 136.81,275.363 134.5,277C 139.701,280.912 139.701,284.912 134.5,289C 90.6886,296.329 48.6886,309.163 8.5,327.5C 8.42456,323.103 8.92456,318.77 10,314.5C 11.3561,313.62 12.8561,313.286 14.5,313.5C 14.5,310.833 14.5,308.167 14.5,305.5C 12.7376,305.643 11.0709,305.309 9.5,304.5C 8.28882,303.726 8.28882,302.893 9.5,302C 15.296,301.726 20.9627,300.726 26.5,299C 28.985,294.15 27.3183,291.15 21.5,290C 17.3763,288.944 13.7096,289.778 10.5,292.5C 9.52242,292.023 8.68909,291.357 8,290.5C 6.51793,277.728 8.18459,265.395 13,253.5C 17.5953,245.24 22.5953,237.24 28,229.5C 42.3333,212.167 56.6667,194.833 71,177.5C 78.3097,165.863 83.143,153.197 85.5,139.5C 85.0951,130.262 80.2618,125.595 71,125.5C 56.8274,128.113 43.6607,133.28 31.5,141C 30.1667,141.667 28.8333,141.667 27.5,141C 24.252,133.408 21.252,125.742 18.5,118C 21.0118,115.556 23.3451,112.89 25.5,110C 25.0137,107.973 25.0137,105.807 25.5,103.5C 22.2761,103.203 19.2761,103.87 16.5,105.5C 15.6534,102.134 17.1534,100.134 21,99.5C 23.2892,100.949 25.1225,100.449 26.5,98C 24.4873,97.1247 24.4873,95.7913 26.5,94C 23.1307,90.7388 19.1307,89.7388 14.5,91C 12.0666,92.6324 9.56662,94.1324 7,95.5C 5.37827,95.0459 4.21161,94.0459 3.5,92.5C 4.50189,90.4899 5.50189,88.4899 6.5,86.5C 7.81226,87.4604 9.1456,87.2937 10.5,86C 9.28882,85.1072 9.28882,84.2739 10.5,83.5C 11.8333,82.8333 13.1667,82.1667 14.5,81.5C 15.451,82.3256 16.451,82.4922 17.5,82C 16.2888,81.1072 16.2888,80.2739 17.5,79.5C 18.6655,81.7388 19.9988,81.7388 21.5,79.5 Z M 55.5,82.5 C 57.6348,82.147 58.9681,82.9803 59.5,85C 57.7658,90.0625 54.7658,90.7291 50.5,87C 52.0632,85.264 53.7299,83.764 55.5,82.5 Z M 45.5,95.5 C 52.4944,95.346 54.161,98.1793 50.5,104C 49.2559,104.456 48.4226,103.956 48,102.5C 46.513,103.253 46.3463,104.086 47.5,105C 46.324,106.914 45.324,106.748 44.5,104.5C 43.6143,105.325 43.281,106.325 43.5,107.5C 40.5255,106.679 37.8588,105.346 35.5,103.5C 38.5638,100.43 41.8971,97.7631 45.5,95.5 Z M 38.5,297.5 C 44.7235,296.906 46.7235,299.573 44.5,305.5C 40.2531,306.231 36.2531,305.397 32.5,303C 34.3962,300.932 36.3962,299.099 38.5,297.5 Z"
       id="path1183" />
  </g>
  <g
     id="g1189"
     style="fill:#ffffff">
    <path
       style="opacity:1;fill:#ffffff"
       fill="#f9faf9"
       d="M 23.5,77.5 C 23.5,77.8333 23.5,78.1667 23.5,78.5C 22.5084,78.3284 21.8417,78.6618 21.5,79.5C 20.9569,79.44 20.6236,79.1067 20.5,78.5C 21.325,77.6143 22.325,77.281 23.5,77.5 Z"
       id="path1187" />
  </g>
  <g
     id="g1193"
     style="fill:#ffffff">
    <path
       style="opacity:1;fill:#ffffff"
       fill="#f9faf9"
       d="M 598.5,116.5 C 600.199,116.34 601.866,116.506 603.5,117C 604.5,119.333 606.167,121 608.5,122C 611.817,122.498 615.15,122.665 618.5,122.5C 618.649,123.552 618.483,124.552 618,125.5C 615.365,127.461 613.531,129.961 612.5,133C 613.09,134.299 614.09,135.132 615.5,135.5C 617.266,134.909 618.933,134.076 620.5,133C 623.068,129.333 625.735,125.833 628.5,122.5C 630.4,123.447 631.733,124.947 632.5,127C 633.766,127.309 634.933,127.809 636,128.5C 640.248,126.974 644.581,125.64 649,124.5C 649.833,124.833 650.667,125.167 651.5,125.5C 648.28,128.375 645.113,131.375 642,134.5C 629.167,156.17 615.834,177.503 602,198.5C 585.066,228.037 568.399,257.703 552,287.5C 549.88,289.652 547.38,291.152 544.5,292C 540.891,293.131 539.057,291.965 539,288.5C 541.207,285.922 543.04,283.089 544.5,280C 543.601,278.764 542.434,277.93 541,277.5C 538.332,278.67 535.998,280.337 534,282.5C 533.152,285.698 531.652,288.531 529.5,291C 528.552,291.483 527.552,291.649 526.5,291.5C 527.349,285.951 529.016,280.617 531.5,275.5C 530.635,274.417 529.635,274.251 528.5,275C 525.5,278.667 522.5,282.333 519.5,286C 518.668,286.688 518.002,286.521 517.5,285.5C 527.739,261.852 538.405,238.352 549.5,215C 535.948,196.055 522.282,177.222 508.5,158.5C 508.702,156.077 509.869,154.411 512,153.5C 515.014,156.847 518.348,159.847 522,162.5C 522.328,159.793 521.995,157.126 521,154.5C 518.572,151.935 516.405,149.269 514.5,146.5C 516.464,140.613 519.63,139.947 524,144.5C 524.333,144.167 524.667,143.833 525,143.5C 524.798,138.41 525.965,133.743 528.5,129.5C 532.239,127.877 534.239,129.21 534.5,133.5C 535.328,134.415 536.328,135.081 537.5,135.5C 539.173,133.914 541.173,133.247 543.5,133.5C 543.884,137.604 545.384,141.271 548,144.5C 554.276,154.442 560.943,164.108 568,173.5C 578.706,154.753 588.873,135.753 598.5,116.5 Z M 605.5,133.5 C 607.167,133.5 608.833,133.5 610.5,133.5C 609.07,138.274 606.403,142.274 602.5,145.5C 600.616,144.307 600.116,142.641 601,140.5C 601.145,137.207 602.645,134.874 605.5,133.5 Z M 601.5,155.5 C 604.076,155.722 604.91,157.055 604,159.5C 602.882,163.456 600.382,165.789 596.5,166.5C 595.775,161.623 597.442,157.956 601.5,155.5 Z M 546.5,260.5 C 548.346,260.222 549.68,260.889 550.5,262.5C 548.518,265.81 546.185,268.81 543.5,271.5C 541.616,270.307 541.116,268.641 542,266.5C 542.979,264.032 544.479,262.032 546.5,260.5 Z"
       id="path1191" />
  </g>
  <g
     id="g1197"
     style="fill:#ffffff">
    <path
       style="opacity:1;fill:#ffffff"
       fill="#f9faf9"
       d="M 746.5,118.5 C 747.5,118.5 748.5,118.5 749.5,118.5C 749.405,121.358 748.238,123.691 746,125.5C 745.667,127.5 745.333,129.5 745,131.5C 741.165,132.927 739.665,135.427 740.5,139C 741.793,139.49 743.127,139.657 744.5,139.5C 744.67,140.822 744.337,141.989 743.5,143C 745.473,143.495 747.473,143.662 749.5,143.5C 747.796,146.399 745.796,149.232 743.5,152C 727.586,156.228 711.919,161.228 696.5,167C 695.299,167.903 694.465,169.069 694,170.5C 693.61,174.514 693.11,178.514 692.5,182.5C 692.305,184.725 693.139,186.391 695,187.5C 702.407,184.8 709.74,181.8 717,178.5C 718.477,179.444 719.477,180.777 720,182.5C 725.71,180.207 731.544,178.207 737.5,176.5C 739,176.453 740,177.119 740.5,178.5C 739.391,180.385 738.557,182.385 738,184.5C 737.703,190.786 736.87,196.952 735.5,203C 721.016,207.606 706.683,212.606 692.5,218C 691.667,218.833 690.833,219.667 690,220.5C 688.68,234.146 688.346,247.813 689,261.5C 690.049,262.517 691.216,262.684 692.5,262C 706.164,254.501 720.498,248.668 735.5,244.5C 735.5,246.167 735.5,247.833 735.5,249.5C 737.288,249.215 738.955,249.548 740.5,250.5C 735.399,251.396 731.065,253.896 727.5,258C 728.6,259.023 729.933,259.523 731.5,259.5C 734.437,258.53 737.437,257.863 740.5,257.5C 738.466,261.092 736.8,264.925 735.5,269C 723.027,272.935 710.694,277.269 698.5,282C 694.172,283.829 690.172,286.162 686.5,289C 676.874,290.198 667.207,291.032 657.5,291.5C 658.721,288.668 658.721,285.835 657.5,283C 658.054,281.449 658.72,279.949 659.5,278.5C 656.922,264.943 655.255,251.276 654.5,237.5C 652.167,238.167 649.833,238.833 647.5,239.5C 647.126,236.028 648.126,233.028 650.5,230.5C 649.5,228.167 647.833,226.5 645.5,225.5C 644.092,221.761 644.259,218.094 646,214.5C 648.643,213.024 650.81,211.024 652.5,208.5C 651.538,201.892 651.205,195.226 651.5,188.5C 646.239,189.695 641.573,192.028 637.5,195.5C 636.914,195.291 636.414,194.957 636,194.5C 635.333,192.5 635.333,190.5 636,188.5C 637.368,185.814 638.701,183.147 640,180.5C 642.185,178.46 644.685,177.126 647.5,176.5C 647.592,172.929 645.926,171.762 642.5,173C 639.724,176.25 637.39,175.917 635.5,172C 637.109,167.276 636.776,162.776 634.5,158.5C 636.944,156.105 639.61,153.938 642.5,152C 663.214,140.862 685.047,132.028 708,125.5C 709.784,126.309 711.617,126.976 713.5,127.5C 724.577,124.359 735.577,121.359 746.5,118.5 Z M 655.5,160.5 C 658.167,160.5 660.833,160.5 663.5,160.5C 663.714,162.144 663.38,163.644 662.5,165C 659.162,166.92 655.662,168.42 652,169.5C 650.338,169.612 649.171,168.946 648.5,167.5C 650.548,164.785 652.882,162.452 655.5,160.5 Z M 714.5,264.5 C 717.166,264.066 718.333,265.066 718,267.5C 715.765,269.202 713.265,270.202 710.5,270.5C 710.238,269.022 710.571,267.689 711.5,266.5C 712.739,266.058 713.739,265.391 714.5,264.5 Z"
       id="path1195" />
  </g>
  <g
     id="g1201"
     style="fill:#ffffff">
    <path
       style="opacity:1;fill:#ffffff"
       fill="#f9faf9"
       d="M 936.5,296.5 C 939.661,295.53 942.494,293.863 945,291.5C 944.99,289.529 943.824,288.529 941.5,288.5C 938.215,289.028 934.882,289.195 931.5,289C 928.5,290.667 925.5,292.333 922.5,294C 920.833,294.667 919.167,294.667 917.5,294C 925.303,287.198 932.803,280.031 940,272.5C 945.484,264.237 944.317,257.07 936.5,251C 931.38,248.223 926.047,245.89 920.5,244C 918.037,242.079 916.037,239.746 914.5,237C 901.489,235.743 890.989,229.91 883,219.5C 879.595,210.073 879.929,200.74 884,191.5C 890.198,178.628 898.698,167.462 909.5,158C 925.117,144.856 941.784,133.189 959.5,123C 963.359,120.993 967.359,119.493 971.5,118.5C 970.273,124.529 968.606,130.529 966.5,136.5C 966.818,137.647 967.484,138.481 968.5,139C 971.78,139.056 974.78,139.889 977.5,141.5C 973.804,143.781 970.304,146.447 967,149.5C 966.51,150.793 966.343,152.127 966.5,153.5C 968.199,153.66 969.866,153.494 971.5,153C 973.386,149.891 976.053,148.891 979.5,150C 980.451,150.718 980.617,151.551 980,152.5C 968.54,158.785 958.04,166.451 948.5,175.5C 941.838,181.313 937.505,188.48 935.5,197C 936.145,201.663 938.478,205.33 942.5,208C 949.802,211.651 957.136,215.318 964.5,219C 977.826,227.293 982.326,239.127 978,254.5C 973.739,267.519 966.572,278.686 956.5,288C 954.043,289.562 951.376,290.562 948.5,291C 946.996,296.858 943.33,299.525 937.5,299C 936.748,298.329 936.414,297.496 936.5,296.5 Z M 953.5,147.5 C 954.833,147.5 956.167,147.5 957.5,147.5C 957.086,150.658 955.253,152.658 952,153.5C 950.596,153.491 949.43,152.991 948.5,152C 950.063,150.264 951.73,148.764 953.5,147.5 Z M 942.5,158.5 C 943.978,158.238 945.311,158.571 946.5,159.5C 943.024,164.985 941.691,164.651 942.5,158.5 Z M 947.5,278.5 C 950.998,278.565 951.498,279.899 949,282.5C 947.644,283.38 946.144,283.714 944.5,283.5C 944.31,281.041 945.31,279.374 947.5,278.5 Z"
       id="path1199" />
  </g>
  <g
     id="g1205"
     style="fill:#ffffff">
    <path
       style="opacity:1;fill:#ffffff"
       fill="#f9faf9"
       d="M 250.5,121.5 C 264.588,121.185 277.254,125.185 288.5,133.5C 295.717,141.167 299.05,150.334 298.5,161C 297.867,179.574 291.367,195.74 279,209.5C 271.795,216.373 264.295,222.873 256.5,229C 246.915,235.042 237.415,241.209 228,247.5C 225.934,260.43 225.1,273.43 225.5,286.5C 223.336,282.84 221.17,279.174 219,275.5C 215.622,280.561 211.789,285.395 207.5,290C 205.22,290.233 203.22,291.066 201.5,292.5C 201.167,292 200.833,291.5 200.5,291C 194.434,254.095 190.934,216.929 190,179.5C 184.223,176.379 179.056,177.213 174.5,182C 171.333,182.833 170.167,181.667 171,178.5C 172.745,177.044 174.578,175.711 176.5,174.5C 175.572,173.232 175.405,171.899 176,170.5C 178.333,169.587 180.166,168.087 181.5,166C 180.601,164.764 179.434,163.93 178,163.5C 175.953,164.609 173.787,165.276 171.5,165.5C 171.413,162.261 172.08,159.261 173.5,156.5C 171.738,156.357 170.071,156.691 168.5,157.5C 166.51,156.537 166.177,155.204 167.5,153.5C 192.049,134.543 219.716,123.876 250.5,121.5 Z M 190.5,151.5 C 193.845,151.864 194.845,153.531 193.5,156.5C 190.657,158.236 187.657,159.07 184.5,159C 183.549,158.282 183.383,157.449 184,156.5C 185.805,154.174 187.972,152.508 190.5,151.5 Z M 233.5,161.5 C 240.844,160.768 247.844,161.934 254.5,165C 261.632,175.051 260.965,184.551 252.5,193.5C 246.007,199.994 238.674,205.327 230.5,209.5C 229.914,209.291 229.414,208.957 229,208.5C 228.953,194.148 229.62,179.815 231,165.5C 231.662,164.016 232.496,162.683 233.5,161.5 Z M 208.5,263.5 C 210.411,263.574 211.578,264.574 212,266.5C 212.755,269.303 212.422,271.97 211,274.5C 207.5,271.497 206.667,267.83 208.5,263.5 Z"
       id="path1203" />
  </g>
  <g
     id="g1209"
     style="fill:#ffffff">
    <path
       style="opacity:1;fill:#ffffff"
       fill="#f9faf9"
       d="M 817.5,122.5 C 827.839,122.334 838.172,122.5 848.5,123C 873.082,129.288 883.248,145.122 879,170.5C 876.047,185.74 869.38,199.073 859,210.5C 850.797,218.372 842.297,225.872 833.5,233C 853.561,243.696 874.394,252.862 896,260.5C 896.667,262.167 896.667,263.833 896,265.5C 894.569,268.083 893.402,270.75 892.5,273.5C 893.172,275.832 893.339,278.166 893,280.5C 889.658,280.959 886.325,281.292 883,281.5C 882.583,284.284 883.75,286.284 886.5,287.5C 886,287.833 885.5,288.167 885,288.5C 860.427,281.81 835.927,274.81 811.5,267.5C 810.228,267.57 809.062,267.903 808,268.5C 807.81,274.416 807.31,280.249 806.5,286C 805.167,286.667 803.833,286.667 802.5,286C 799.992,282.475 797.158,281.975 794,284.5C 792.323,283.099 790.656,281.765 789,280.5C 787.347,280.82 786.347,281.82 786,283.5C 785.73,286.224 785.23,288.891 784.5,291.5C 782.675,292.571 781.508,291.904 781,289.5C 776.889,254.327 773.389,219.327 770.5,184.5C 765.897,187.382 761.397,190.382 757,193.5C 754.866,191.713 754.033,189.38 754.5,186.5C 759.784,185.903 763.784,183.236 766.5,178.5C 766,177.119 765,176.453 763.5,176.5C 759.88,177.819 756.546,179.319 753.5,181C 752.236,179.139 751.236,177.139 750.5,175C 752.433,172.268 754.933,170.101 758,168.5C 758.154,164.652 756.154,162.652 752,162.5C 750.56,163.148 749.06,163.481 747.5,163.5C 747.335,160.482 747.502,157.482 748,154.5C 768.637,138.264 791.804,127.597 817.5,122.5 Z M 767.5,152.5 C 769.527,152.338 771.527,152.505 773.5,153C 773.957,153.414 774.291,153.914 774.5,154.5C 772.167,156.667 769.833,158.833 767.5,161C 764.518,161.498 761.518,161.665 758.5,161.5C 758.343,160.127 758.51,158.793 759,157.5C 761.979,155.933 764.812,154.266 767.5,152.5 Z M 822.5,159.5 C 836.49,157.706 842.99,163.706 842,177.5C 838.783,185.729 833.616,192.562 826.5,198C 822,201.167 817.5,204.333 813,207.5C 812.333,206.833 811.667,206.167 811,205.5C 810.76,191.803 811.426,178.136 813,164.5C 815.64,161.599 818.807,159.932 822.5,159.5 Z M 773.5,167.5 C 774.995,167.415 775.995,168.081 776.5,169.5C 775.421,171.543 773.754,172.876 771.5,173.5C 770.28,173.113 769.613,172.28 769.5,171C 770.347,169.229 771.68,168.063 773.5,167.5 Z M 784.5,255.5 C 788.646,257.035 789.48,259.702 787,263.5C 784.797,261.331 783.964,258.665 784.5,255.5 Z M 793.5,265.5 C 795.776,265.756 796.943,267.09 797,269.5C 797.667,271.5 797.667,273.5 797,275.5C 795.413,276.727 794.079,276.394 793,274.5C 791.519,271.185 791.686,268.185 793.5,265.5 Z M 863.5,273.5 C 868.836,272.185 871.503,274.185 871.5,279.5C 868.689,279.174 866.022,278.341 863.5,277C 862.316,275.855 862.316,274.688 863.5,273.5 Z"
       id="path1207" />
  </g>
  <g
     id="g1213"
     style="fill:#ffffff">
    <path
       style="opacity:1;fill:#ffffff"
       fill="#f9faf9"
       d="M 489.5,124.5 C 490.833,124.5 492.167,124.5 493.5,124.5C 492.099,128.168 491.432,132.001 491.5,136C 493.008,155.24 495.175,174.407 498,193.5C 498.687,195.555 499.854,197.221 501.5,198.5C 504.66,196.973 507.993,196.307 511.5,196.5C 509.514,205.041 508.014,213.708 507,222.5C 504.51,223.982 503.343,226.148 503.5,229C 505.88,241.114 507.88,253.28 509.5,265.5C 506.873,266.092 504.206,266.425 501.5,266.5C 501.067,263.834 500.567,261.168 500,258.5C 497.567,257.882 496.067,259.048 495.5,262C 498.552,266.297 497.719,269.797 493,272.5C 492.667,273.833 492.333,275.167 492,276.5C 488.8,279.001 485.3,280.501 481.5,281C 476.395,266.845 472.395,252.345 469.5,237.5C 458.509,240.059 448.176,244.392 438.5,250.5C 435.494,263.227 432.494,275.894 429.5,288.5C 424.491,288.259 419.491,288.926 414.5,290.5C 412.9,290.449 411.4,290.116 410,289.5C 408.649,291.019 407.149,292.352 405.5,293.5C 404.719,292.271 404.219,290.938 404,289.5C 403.1,269.116 403.767,248.783 406,228.5C 407.121,224.461 408.621,220.628 410.5,217C 409.687,211.687 409.021,206.354 408.5,201C 410.125,182.375 412.625,163.875 416,145.5C 424.071,140.402 432.904,137.902 442.5,138C 443.108,140.184 442.441,142.184 440.5,144C 441.264,146.069 441.764,148.236 442,150.5C 444.929,151.276 446.596,149.943 447,146.5C 446.084,134.899 451.584,128.566 463.5,127.5C 462.8,130.063 461.8,132.563 460.5,135C 460.833,135.5 461.167,136 461.5,136.5C 465.347,135.909 469.347,135.909 473.5,136.5C 478.54,131.994 483.874,127.994 489.5,124.5 Z M 474.5,140.5 C 475.15,140.804 475.817,141.137 476.5,141.5C 479.053,152.69 477.386,153.856 471.5,145C 471.557,142.791 472.557,141.291 474.5,140.5 Z M 435.5,157.5 C 436.756,157.461 437.756,157.961 438.5,159C 437.475,161.071 436.642,163.238 436,165.5C 432.868,162.987 432.701,160.32 435.5,157.5 Z M 454.5,170.5 C 455.117,170.611 455.617,170.944 456,171.5C 457.517,183.787 459.684,195.954 462.5,208C 462.355,208.772 462.022,209.439 461.5,210C 456.135,212.099 450.968,214.599 446,217.5C 445.077,215.966 444.577,214.299 444.5,212.5C 446.283,198.038 449.617,184.038 454.5,170.5 Z"
       id="path1211" />
  </g>
  <g
     id="g1217"
     style="fill:#ffffff">
    <path
       style="opacity:1;fill:#ffffff"
       fill="#f9faf9"
       d="M 354.5,126.5 C 355.833,126.5 357.167,126.5 358.5,126.5C 357.908,129.691 356.741,132.691 355,135.5C 350.84,174.414 348.174,213.414 347,252.5C 347.388,253.428 348.055,254.095 349,254.5C 361.173,248.129 373.84,243.129 387,239.5C 388.167,239.833 389.333,240.167 390.5,240.5C 388.874,241.99 387.208,243.49 385.5,245C 387.833,245.667 390.167,245.667 392.5,245C 394.935,242.902 397.601,242.402 400.5,243.5C 399.872,245.258 398.872,246.758 397.5,248C 386.511,252.773 386.844,254.606 398.5,253.5C 396.101,258.612 392.935,263.279 389,267.5C 373.269,273.116 358.103,279.949 343.5,288C 339.012,289.811 334.346,290.811 329.5,291C 325.702,292.545 322.035,294.379 318.5,296.5C 316.022,295.278 315.022,293.278 315.5,290.5C 320.022,289.721 323.689,287.555 326.5,284C 325.471,282.302 323.971,281.468 322,281.5C 319.914,282.418 317.747,283.085 315.5,283.5C 311.178,236.27 309.844,188.937 311.5,141.5C 315.694,141.177 319.527,142.177 323,144.5C 322.347,147.7 323.847,149.366 327.5,149.5C 324.781,140.937 327.781,135.603 336.5,133.5C 340.926,134.108 341.592,136.108 338.5,139.5C 339.539,142.921 341.539,145.588 344.5,147.5C 345.896,146.148 346.563,144.481 346.5,142.5C 345.979,140.476 345.812,138.476 346,136.5C 349.014,133.319 351.848,129.986 354.5,126.5 Z M 331.5,156.5 C 332.833,156.5 334.167,156.5 335.5,156.5C 335.915,160.375 335.415,164.042 334,167.5C 332.303,165.301 330.803,162.968 329.5,160.5C 330.18,159.14 330.847,157.807 331.5,156.5 Z M 376.5,251.5 C 381.59,252.912 381.59,254.745 376.5,257C 373.866,257.925 372.699,257.091 373,254.5C 374.145,253.364 375.312,252.364 376.5,251.5 Z"
       id="path1215" />
  </g>
  <g
     id="g1221"
     style="fill:#ffffff">
    <path
       style="opacity:1;fill:#ffffff"
       fill="#f9faf9"
       d="M 888.5,288.5 C 890.09,288.628 891.423,289.295 892.5,290.5C 890.167,291.941 888.834,291.275 888.5,288.5 Z"
       id="path1219" />
  </g>
  <g
     id="g1225"
     style="fill:#ffffff">
    <path
       style="opacity:1;fill:#ffffff"
       fill="#f9faf9"
       d="M 936.5,296.5 C 934.385,298.891 931.719,300.224 928.5,300.5C 929.461,296.206 932.128,293.539 936.5,292.5C 936.5,293.833 936.5,295.167 936.5,296.5 Z"
       id="path1223" />
  </g>
  <g
     id="g1229"
     style="fill:#ffffff">
    <path
       style="opacity:1;fill:#ffffff"
       fill="#f9faf9"
       d="M 661.5,294.5 C 662.5,294.5 663.5,294.5 664.5,294.5C 663.97,299.017 661.636,302.017 657.5,303.5C 657.482,299.871 658.816,296.871 661.5,294.5 Z"
       id="path1227" />
  </g>
  <g
     id="g1233"
     style="fill:#ffffff">
    <path
       style="opacity:1;fill:#ffffff"
       fill="#f9faf9"
       d="M 18.5,298.5 C 19.8333,299.167 19.8333,299.167 18.5,298.5 Z"
       id="path1231" />
  </g>
</svg>
