<?xml version="1.0" encoding="UTF-8" standalone="no"?>
<svg
   version="1.1"
   width="1000px"
   height="391px"
   style="shape-rendering:geometricPrecision; text-rendering:geometricPrecision; image-rendering:optimizeQuality; fill-rule:evenodd; clip-rule:evenodd"
   id="svg1452"
   sodipodi:docname="auto-at4players.svg"
   inkscape:version="1.2.2 (732a01da63, 2022-12-09)"
   xmlns:inkscape="http://www.inkscape.org/namespaces/inkscape"
   xmlns:sodipodi="http://sodipodi.sourceforge.net/DTD/sodipodi-0.dtd"
   xmlns="http://www.w3.org/2000/svg"
   xmlns:svg="http://www.w3.org/2000/svg">
  <defs
     id="defs1456" />
  <sodipodi:namedview
     id="namedview1454"
     pagecolor="#ffffff"
     bordercolor="#000000"
     borderopacity="0.25"
     inkscape:showpageshadow="2"
     inkscape:pageopacity="0.0"
     inkscape:pagecheckerboard="0"
     inkscape:deskcolor="#d1d1d1"
     showgrid="false"
     inkscape:zoom="1.206"
     inkscape:cx="469.73466"
     inkscape:cy="195.68823"
     inkscape:window-width="1366"
     inkscape:window-height="705"
     inkscape:window-x="-8"
     inkscape:window-y="-8"
     inkscape:window-maximized="1"
     inkscape:current-layer="svg1452" />
  <g
     id="g1418"
     style="fill:#ffffff">
    <path
       style="opacity:1;fill:#ffffff"
       fill="#f9faf9"
       d="M -0.5,224.5 C -0.5,223.5 -0.5,222.5 -0.5,221.5C 22.7754,176.246 48.1087,132.246 75.5,89.5C 75.6045,93.6027 77.6045,96.2693 81.5,97.5C 82.8139,96.6872 83.9805,95.6872 85,94.5C 85.9417,91.5571 87.1084,88.7238 88.5,86C 91.7204,85.2837 94.7204,84.117 97.5,82.5C 99.6357,83.8594 99.9691,85.6928 98.5,88C 98.4974,92.5783 100.331,96.0783 104,98.5C 105.527,96.779 106.527,94.779 107,92.5C 107.333,88.1667 107.667,83.8333 108,79.5C 110.405,77.0506 112.905,74.7173 115.5,72.5C 116.259,75.1566 116.926,77.8233 117.5,80.5C 119.191,82.2562 121.191,82.7562 123.5,82C 127.031,76.133 132.031,72.133 138.5,70C 137.289,69.1072 137.289,68.2739 138.5,67.5C 139.192,68.0253 139.692,68.6919 140,69.5C 141.185,67.4407 142.352,67.274 143.5,69C 142.516,70.6565 141.516,72.3232 140.5,74C 141.5,81.1667 145.167,83 151.5,79.5C 152.308,79.8076 152.975,80.3076 153.5,81C 151.959,82.5793 150.792,84.4127 150,86.5C 146.695,125.794 144.362,165.128 143,204.5C 144.686,206.919 147.019,207.919 150,207.5C 153.073,207.519 155.907,206.853 158.5,205.5C 158.523,207.6 157.856,209.433 156.5,211C 156.759,212.261 157.426,213.261 158.5,214C 161.531,214.495 164.531,214.329 167.5,213.5C 166.054,217.963 165.22,222.629 165,227.5C 163.818,229.344 162.651,231.177 161.5,233C 165.714,238.095 164.714,241.929 158.5,244.5C 153.789,245.101 149.122,245.935 144.5,247C 143.333,247.5 142.5,248.333 142,249.5C 139.754,270.804 139.087,292.138 140,313.5C 137.765,315.202 135.265,316.202 132.5,316.5C 133.544,311.469 133.544,306.469 132.5,301.5C 134.485,298.366 134.651,295.032 133,291.5C 132.311,290.643 131.478,289.977 130.5,289.5C 125.245,293.342 122.745,298.342 123,304.5C 120,309.167 117,313.833 114,318.5C 112.204,319.767 110.371,319.767 108.5,318.5C 106.228,319.441 104.228,320.774 102.5,322.5C 99.5737,300.992 96.907,279.492 94.5,258C 90.038,257.592 85.7047,258.259 81.5,260C 62.871,266.372 44.5377,273.205 26.5,280.5C 26.4571,277.09 26.9571,273.757 28,270.5C 32.4762,265.539 31.9762,261.039 26.5,257C 28.5971,253.714 28.9305,250.214 27.5,246.5C 25.2273,245.572 22.894,245.572 20.5,246.5C 18.448,246.384 17.1147,245.384 16.5,243.5C 18.1412,240.373 20.1412,237.54 22.5,235C 23.5174,232.213 23.6841,229.38 23,226.5C 22.586,226.043 22.086,225.709 21.5,225.5C 17.5657,227.439 13.899,229.772 10.5,232.5C 8.81191,230.971 7.47858,229.137 6.5,227C 4.257,225.864 1.92367,225.03 -0.5,224.5 Z M 113.5,94.5 C 116.822,94.4887 118.489,96.1554 118.5,99.5C 117.413,104.594 116.246,109.594 115,114.5C 108.614,108.136 108.114,101.469 113.5,94.5 Z M 86.5,173.5 C 87.4959,173.414 88.3292,173.748 89,174.5C 89.9059,190.175 90.5726,205.842 91,221.5C 87.9309,223.018 84.7643,224.351 81.5,225.5C 80.4461,225.32 79.4461,224.987 78.5,224.5C 78.891,225.718 78.2244,226.552 76.5,227C 70.33,229.462 63.9967,230.795 57.5,231C 56.8333,230.333 56.1667,229.667 55.5,229C 64.4087,209.68 74.7421,191.18 86.5,173.5 Z M 25.5,203.5 C 27.1667,203.5 28.8333,203.5 30.5,203.5C 30.477,205.927 29.977,208.26 29,210.5C 26.8161,213.402 24.8161,216.402 23,219.5C 22,218.167 21,218.167 20,219.5C 18.1441,212.933 19.9774,207.599 25.5,203.5 Z M 122.5,265.5 C 124.665,265.116 126.332,265.783 127.5,267.5C 126.893,271.489 126.227,275.489 125.5,279.5C 120.689,275.597 119.689,270.93 122.5,265.5 Z M 116.5,279.5 C 119.05,279.884 120.383,281.384 120.5,284C 120.121,289.338 119.121,294.505 117.5,299.5C 116.252,298.96 115.085,298.293 114,297.5C 109.871,290.672 110.705,284.672 116.5,279.5 Z"
       id="path1416" />
  </g>
  <g
     id="g1422"
     style="fill:#ffffff">
    <path
       style="opacity:1;fill:#ffffff"
       fill="#f9faf9"
       d="M 598.5,116.5 C 600.199,116.34 601.866,116.506 603.5,117C 607.162,122.063 612.162,123.896 618.5,122.5C 616.685,125.849 615.019,129.349 613.5,133C 613.667,134.5 614.5,135.333 616,135.5C 620.749,133.75 623.749,130.417 625,125.5C 625.745,124.01 626.912,123.01 628.5,122.5C 630.29,123.786 631.957,125.286 633.5,127C 638.839,127.448 644.006,126.615 649,124.5C 649.833,124.833 650.667,125.167 651.5,125.5C 649.478,128.356 646.978,130.689 644,132.5C 628.917,157.002 613.583,181.335 598,205.5C 582.42,233.662 566.587,261.662 550.5,289.5C 547.128,292.939 543.461,293.605 539.5,291.5C 538.417,290.635 538.251,289.635 539,288.5C 540.738,285.938 542.238,283.271 543.5,280.5C 543.132,279.09 542.299,278.09 541,277.5C 538.828,278.585 536.828,279.919 535,281.5C 533.719,285.037 531.886,288.204 529.5,291C 528.552,291.483 527.552,291.649 526.5,291.5C 527.349,285.951 529.016,280.617 531.5,275.5C 530.635,274.417 529.635,274.251 528.5,275C 525.357,279.444 521.857,283.611 518,287.5C 517.83,285.155 518.163,282.821 519,280.5C 529.241,258.646 539.408,236.646 549.5,214.5C 535.332,196.148 521.665,177.481 508.5,158.5C 508.702,156.077 509.869,154.411 512,153.5C 515.014,156.847 518.348,159.847 522,162.5C 522.17,160.155 521.837,157.821 521,155.5C 518.606,152.615 516.439,149.615 514.5,146.5C 516.464,140.613 519.63,139.947 524,144.5C 525.815,142.173 525.982,139.673 524.5,137C 525.371,132.126 528.037,129.459 532.5,129C 533.212,131.881 534.878,134.048 537.5,135.5C 539.173,133.914 541.173,133.247 543.5,133.5C 544.092,136.691 545.259,139.691 547,142.5C 553.753,153.006 560.753,163.34 568,173.5C 578.691,154.784 588.858,135.784 598.5,116.5 Z M 606.5,133.5 C 608.09,133.628 609.423,134.295 610.5,135.5C 608.694,138.472 606.694,141.305 604.5,144C 602.681,144.783 601.348,144.283 600.5,142.5C 600.955,138.394 602.955,135.394 606.5,133.5 Z M 599.5,156.5 C 601.167,156.5 602.833,156.5 604.5,156.5C 603.772,160.735 601.605,164.069 598,166.5C 597.056,165.737 596.556,164.737 596.5,163.5C 597.237,161.03 598.237,158.696 599.5,156.5 Z M 547.5,260.5 C 548.627,261.122 549.627,261.955 550.5,263C 548.333,266.197 545.833,269.03 543,271.5C 541.56,270.07 541.226,268.403 542,266.5C 543.36,263.977 545.193,261.977 547.5,260.5 Z"
       id="path1420" />
  </g>
  <g
     id="g1426"
     style="fill:#ffffff">
    <path
       style="opacity:1;fill:#ffffff"
       fill="#f9faf9"
       d="M 745.5,118.5 C 746.833,118.5 748.167,118.5 749.5,118.5C 747.431,122.483 746.098,126.816 745.5,131.5C 742.705,132.461 740.705,134.294 739.5,137C 740.653,138.883 742.319,139.716 744.5,139.5C 744.5,140.833 744.5,142.167 744.5,143.5C 746.167,143.5 747.833,143.5 749.5,143.5C 749.649,144.552 749.483,145.552 749,146.5C 746.913,147.834 745.413,149.667 744.5,152C 727.849,156.328 711.516,161.661 695.5,168C 693.874,172.979 692.874,178.145 692.5,183.5C 692.58,185.33 693.413,186.663 695,187.5C 702.437,184.782 709.77,181.782 717,178.5C 718.531,179.217 719.864,180.217 721,181.5C 726.448,179.644 731.948,177.978 737.5,176.5C 739.266,176.434 740.266,177.268 740.5,179C 738.341,186.864 736.674,194.864 735.5,203C 722.833,207.333 710.167,211.667 697.5,216C 694.53,216.763 692.03,218.263 690,220.5C 688.679,234.196 688.512,247.862 689.5,261.5C 690.365,262.583 691.365,262.749 692.5,262C 705.825,254.92 719.658,249.086 734,244.5C 736.48,245.122 736.98,246.456 735.5,248.5C 737.045,249.452 738.712,249.785 740.5,249.5C 740.5,250.5 740.5,251.5 740.5,252.5C 735.874,251.7 732.04,253.034 729,256.5C 728.517,257.448 728.351,258.448 728.5,259.5C 732.626,259.428 736.626,258.761 740.5,257.5C 738.649,261.246 736.983,265.079 735.5,269C 723.293,272.736 711.293,277.069 699.5,282C 694.508,284.161 689.841,286.828 685.5,290C 676.29,292.67 666.956,293.17 657.5,291.5C 658.721,288.668 658.721,285.835 657.5,283C 657.493,281.188 658.16,279.688 659.5,278.5C 656.855,264.963 655.189,251.296 654.5,237.5C 652.037,237.781 649.87,238.781 648,240.5C 647.5,240 647,239.5 646.5,239C 647.161,235.863 648.495,233.03 650.5,230.5C 649.141,228.308 647.308,226.641 645,225.5C 644.163,221.705 644.496,218.039 646,214.5C 648.445,213.023 650.612,211.19 652.5,209C 651.521,202.256 651.188,195.422 651.5,188.5C 646.309,189.762 641.642,192.096 637.5,195.5C 636.914,195.291 636.414,194.957 636,194.5C 635.333,192.5 635.333,190.5 636,188.5C 637.368,185.814 638.701,183.147 640,180.5C 642.185,178.46 644.685,177.126 647.5,176.5C 647.67,175.178 647.337,174.011 646.5,173C 643.716,172.8 641.216,173.634 639,175.5C 636.942,174.942 635.775,173.609 635.5,171.5C 636.015,169.364 636.349,167.197 636.5,165C 635.866,162.41 635.366,159.91 635,157.5C 644.77,150.354 655.27,144.521 666.5,140C 679.353,135.081 692.353,130.414 705.5,126C 708.305,125.558 710.972,126.058 713.5,127.5C 724.308,124.483 734.975,121.483 745.5,118.5 Z M 655.5,160.5 C 657.857,160.337 660.19,160.503 662.5,161C 663.517,162.049 663.684,163.216 663,164.5C 659.587,166.706 655.92,168.373 652,169.5C 650.775,169.138 649.609,168.638 648.5,168C 650.823,165.502 653.157,163.002 655.5,160.5 Z M 714.5,264.5 C 716.359,264.461 717.692,265.294 718.5,267C 716.664,268.419 714.664,269.586 712.5,270.5C 711.5,270.167 710.833,269.5 710.5,268.5C 711.549,266.784 712.882,265.451 714.5,264.5 Z"
       id="path1424" />
  </g>
  <g
     id="g1430"
     style="fill:#ffffff">
    <path
       style="opacity:1;fill:#ffffff"
       fill="#f9faf9"
       d="M 967.5,118.5 C 969.948,118.01 971.615,118.843 972.5,121C 970.768,126.458 968.768,131.791 966.5,137C 967.167,137.667 967.833,138.333 968.5,139C 980.079,140.081 980.412,142.747 969.5,147C 965.078,151.075 965.745,153.075 971.5,153C 974.387,148.938 977.387,148.605 980.5,152C 972.057,157.397 963.724,163.064 955.5,169C 948.926,174.904 943.092,181.404 938,188.5C 933.6,196.372 935.1,202.872 942.5,208C 950.469,211.984 958.469,215.984 966.5,220C 978.579,228.981 982.413,240.814 978,255.5C 973.303,268.534 965.803,279.7 955.5,289C 953.33,290.586 950.996,291.92 948.5,293C 945.666,299.026 941.499,300.526 936,297.5C 933.975,299.693 931.475,300.693 928.5,300.5C 929.461,296.206 932.128,293.539 936.5,292.5C 936.238,293.978 936.571,295.311 937.5,296.5C 940.447,295.219 942.781,293.219 944.5,290.5C 943.758,289.713 942.925,289.047 942,288.5C 939.224,289.685 936.39,289.685 933.5,288.5C 929.87,290.315 926.203,292.149 922.5,294C 920.741,294.798 919.074,294.631 917.5,293.5C 925.977,286.857 933.643,279.357 940.5,271C 945.042,263.264 943.709,256.597 936.5,251C 930.5,248.333 924.5,245.667 918.5,243C 916.919,241.172 915.585,239.172 914.5,237C 878.44,229.341 870.607,209.841 891,178.5C 904.345,161.922 919.845,147.755 937.5,136C 947.431,129.874 957.431,124.041 967.5,118.5 Z M 954.5,147.5 C 956.973,147.604 957.639,148.604 956.5,150.5C 954.754,152.854 952.421,153.854 949.5,153.5C 950.363,150.884 952.03,148.884 954.5,147.5 Z M 943.5,158.5 C 947.246,159.698 947.079,161.031 943,162.5C 942.5,162.167 942,161.833 941.5,161.5C 942.193,160.482 942.859,159.482 943.5,158.5 Z M 947.5,278.5 C 948.756,278.461 949.756,278.961 950.5,280C 949.44,281.298 948.274,282.465 947,283.5C 945.941,283.37 945.108,282.87 944.5,282C 945.365,280.641 946.365,279.474 947.5,278.5 Z"
       id="path1428" />
  </g>
  <g
     id="g1434"
     style="fill:#ffffff">
    <path
       style="opacity:1;fill:#ffffff"
       fill="#f9faf9"
       d="M 245.5,121.5 C 295.334,122.453 310.501,146.119 291,192.5C 284.013,204.826 274.846,215.326 263.5,224C 251.752,231.958 239.919,239.791 228,247.5C 225.982,260.917 224.982,274.251 225,287.5C 223.101,283.253 220.934,279.253 218.5,275.5C 215.424,280.427 212.091,285.26 208.5,290C 206.094,290.306 203.927,291.139 202,292.5C 201.055,292.095 200.388,291.428 200,290.5C 194.153,253.744 190.82,216.744 190,179.5C 187.539,178.782 185.039,178.115 182.5,177.5C 178.905,179.102 175.571,181.102 172.5,183.5C 170.744,181.809 170.244,179.809 171,177.5C 175.229,176.651 176.896,174.318 176,170.5C 178.053,169.733 179.553,168.4 180.5,166.5C 180.167,164.833 179.167,163.833 177.5,163.5C 175.503,164.747 173.503,165.581 171.5,166C 170.713,162.996 171.379,160.163 173.5,157.5C 171.282,156.943 168.949,156.943 166.5,157.5C 166.238,156.022 166.571,154.689 167.5,153.5C 190.595,135.615 216.595,124.948 245.5,121.5 Z M 188.5,152.5 C 190.199,152.34 191.866,152.506 193.5,153C 194.451,153.718 194.617,154.551 194,155.5C 191.132,157.755 187.966,158.922 184.5,159C 183.549,158.282 183.383,157.449 184,156.5C 185.667,155.267 187.167,153.933 188.5,152.5 Z M 234.5,161.5 C 241.174,160.965 247.507,162.132 253.5,165C 261.717,174.707 261.384,184.207 252.5,193.5C 246.007,199.994 238.674,205.327 230.5,209.5C 228.958,207.121 228.291,204.454 228.5,201.5C 229.336,188.793 230.503,176.126 232,163.5C 232.995,162.934 233.828,162.267 234.5,161.5 Z M 208.5,263.5 C 211.836,265.524 213.003,268.524 212,272.5C 210.413,273.727 209.079,273.394 208,271.5C 207.278,268.739 207.445,266.073 208.5,263.5 Z"
       id="path1432" />
  </g>
  <g
     id="g1438"
     style="fill:#ffffff">
    <path
       style="opacity:1;fill:#ffffff"
       fill="#f9faf9"
       d="M 828.5,121.5 C 842.594,120.482 855.594,123.649 867.5,131C 876.594,138.697 880.594,148.53 879.5,160.5C 879.07,179.344 872.57,195.677 860,209.5C 851.637,217.921 842.803,225.754 833.5,233C 853.38,243.491 874.047,252.491 895.5,260C 896.591,262.064 896.758,264.231 896,266.5C 894.367,268.453 893.201,270.62 892.5,273C 893.216,275.792 893.549,278.626 893.5,281.5C 889.833,281.5 886.167,281.5 882.5,281.5C 882.297,283.39 882.963,284.89 884.5,286C 886.76,287.689 889.26,288.856 892,289.5C 892.432,290.6 891.932,291.267 890.5,291.5C 886.07,289.188 881.404,287.354 876.5,286C 854.468,280.534 832.635,274.367 811,267.5C 809.674,267.755 808.674,268.422 808,269.5C 807.83,275.196 807.33,280.862 806.5,286.5C 805.232,287.428 803.899,287.595 802.5,287C 800.048,283.061 797.048,282.227 793.5,284.5C 791.831,283.329 790.331,281.996 789,280.5C 788.228,280.645 787.561,280.978 787,281.5C 785.964,284.753 785.297,288.086 785,291.5C 783.817,292.731 782.651,292.731 781.5,291.5C 776.525,256.36 773.359,221.026 772,185.5C 770.493,184.465 768.993,184.632 767.5,186C 763.976,189.025 760.309,191.858 756.5,194.5C 754.946,192.067 754.28,189.4 754.5,186.5C 759.784,185.903 763.784,183.236 766.5,178.5C 765.672,177.585 764.672,176.919 763.5,176.5C 760.265,177.733 757.265,179.399 754.5,181.5C 751.948,179.399 750.781,176.733 751,173.5C 754.067,171.899 756.567,169.732 758.5,167C 755.879,162.836 752.545,162.003 748.5,164.5C 748.167,162.833 747.833,161.167 747.5,159.5C 747.288,156.989 747.955,154.822 749.5,153C 773.018,135.33 799.352,124.83 828.5,121.5 Z M 768.5,152.5 C 770.977,152.051 772.977,152.717 774.5,154.5C 772.167,156.667 769.833,158.833 767.5,161C 764.571,161.777 761.737,161.61 759,160.5C 758.493,159.004 758.993,157.837 760.5,157C 763.391,155.726 766.058,154.226 768.5,152.5 Z M 825.5,159.5 C 836.987,159.486 842.487,165.152 842,176.5C 839.027,185.651 833.527,192.984 825.5,198.5C 821.402,201.298 817.235,203.964 813,206.5C 812.228,206.355 811.561,206.022 811,205.5C 811.001,192.15 811.667,178.817 813,165.5C 813.465,164.069 814.299,162.903 815.5,162C 818.952,161.115 822.286,160.282 825.5,159.5 Z M 771.5,168.5 C 773.288,168.215 774.955,168.548 776.5,169.5C 774.851,170.648 773.351,171.981 772,173.5C 768.98,172.178 768.813,170.511 771.5,168.5 Z M 785.5,255.5 C 788.554,257.713 789.054,260.38 787,263.5C 784.571,261.13 784.071,258.463 785.5,255.5 Z M 793.5,265.5 C 794.496,265.414 795.329,265.748 796,266.5C 796.579,268.649 797.079,270.815 797.5,273C 796.569,277.375 795.069,277.541 793,273.5C 792.278,270.739 792.445,268.073 793.5,265.5 Z M 863.5,273.5 C 867.558,272.692 870.224,274.192 871.5,278C 871.167,278.5 870.833,279 870.5,279.5C 868.111,278.82 865.778,277.986 863.5,277C 862.316,275.855 862.316,274.688 863.5,273.5 Z"
       id="path1436" />
  </g>
  <g
     id="g1442"
     style="fill:#ffffff">
    <path
       style="opacity:1;fill:#ffffff"
       fill="#f9faf9"
       d="M 489.5,124.5 C 490.833,124.5 492.167,124.5 493.5,124.5C 492.631,127.78 491.964,131.113 491.5,134.5C 493.014,154.961 495.514,175.294 499,195.5C 499.368,196.91 500.201,197.91 501.5,198.5C 504.452,197.346 507.452,196.346 510.5,195.5C 511.5,195.833 512.167,196.5 512.5,197.5C 511.667,199.167 510.833,200.833 510,202.5C 509.218,209.206 508.218,215.873 507,222.5C 506.333,223.833 505.333,224.833 504,225.5C 505.334,237.857 507.168,250.191 509.5,262.5C 509.167,263.5 508.833,264.5 508.5,265.5C 506.253,266.374 503.92,266.708 501.5,266.5C 500.908,263.873 500.575,261.206 500.5,258.5C 499.167,258.5 497.833,258.5 496.5,258.5C 496.67,259.822 496.337,260.989 495.5,262C 498.547,266.318 497.713,269.818 493,272.5C 492.798,274.256 492.298,275.922 491.5,277.5C 489.167,278.667 486.833,279.833 484.5,281C 483.056,281.781 481.723,281.614 480.5,280.5C 476.17,266.67 472.336,252.67 469,238.5C 466.853,237.524 464.686,237.691 462.5,239C 453.768,242.232 445.601,246.398 438,251.5C 435.352,263.429 433.018,275.429 431,287.5C 430.5,288 430,288.5 429.5,289C 424.014,288.895 418.847,290.062 414,292.5C 412.441,291.971 410.941,291.304 409.5,290.5C 407.851,291.648 406.351,292.981 405,294.5C 402.983,272.532 403.316,250.532 406,228.5C 407.097,224.479 408.597,220.646 410.5,217C 409.505,211.549 408.839,206.049 408.5,200.5C 410.079,182.045 412.579,163.712 416,145.5C 424.387,140.384 433.554,137.717 443.5,137.5C 442.694,140.285 442.028,143.119 441.5,146C 441.396,148.145 442.063,149.979 443.5,151.5C 444.478,151.023 445.311,150.357 446,149.5C 447.355,144.73 448.022,140.064 448,135.5C 452.166,130.832 457.333,127.832 463.5,126.5C 464.402,129.56 463.402,132.06 460.5,134C 460.957,134.414 461.291,134.914 461.5,135.5C 465.504,135.831 469.504,136.165 473.5,136.5C 478.544,131.993 483.877,127.993 489.5,124.5 Z M 472.5,141.5 C 474.167,141.5 475.833,141.5 477.5,141.5C 477.665,144.85 477.498,148.183 477,151.5C 475.333,149.833 473.667,148.167 472,146.5C 471.36,144.735 471.527,143.068 472.5,141.5 Z M 435.5,157.5 C 436.586,157.62 437.253,158.287 437.5,159.5C 437,161.5 436.5,163.5 436,165.5C 432.868,162.987 432.701,160.32 435.5,157.5 Z M 454.5,170.5 C 455.117,170.611 455.617,170.944 456,171.5C 457.378,183.982 459.545,196.315 462.5,208.5C 457.08,211.627 451.58,214.627 446,217.5C 445.125,216.127 444.625,214.627 444.5,213C 446.507,198.476 449.84,184.31 454.5,170.5 Z"
       id="path1440" />
  </g>
  <g
     id="g1446"
     style="fill:#ffffff">
    <path
       style="opacity:1;fill:#ffffff"
       fill="#f9faf9"
       d="M 354.5,126.5 C 355.833,126.5 357.167,126.5 358.5,126.5C 357.348,130.145 356.182,133.812 355,137.5C 351.061,175.767 348.394,214.1 347,252.5C 347.689,253.357 348.522,254.023 349.5,254.5C 361.932,248.082 374.766,242.748 388,238.5C 388.925,239.047 389.758,239.713 390.5,240.5C 388.874,241.99 387.208,243.49 385.5,245C 390.56,244.819 395.56,243.985 400.5,242.5C 400.607,244.903 399.607,246.736 397.5,248C 386.52,252.82 386.853,254.653 398.5,253.5C 398.649,254.552 398.483,255.552 398,256.5C 395.112,259.722 392.612,263.222 390.5,267C 373.679,273.379 357.346,280.712 341.5,289C 333.121,291.822 324.787,293.989 316.5,295.5C 315.691,293.929 315.357,292.262 315.5,290.5C 318.47,289.451 321.47,288.284 324.5,287C 326.024,283.884 325.024,282.05 321.5,281.5C 319.595,282.065 317.929,283.065 316.5,284.5C 314.882,280.366 314.049,276.032 314,271.5C 310.905,228.208 310.071,184.875 311.5,141.5C 315.616,141.541 319.616,142.207 323.5,143.5C 323.34,145.199 323.506,146.866 324,148.5C 324.718,149.451 325.551,149.617 326.5,149C 325.002,142.324 327.335,137.324 333.5,134C 335.5,133.333 337.5,133.333 339.5,134C 339.964,136.405 340.131,138.905 340,141.5C 341.268,143.717 342.768,145.717 344.5,147.5C 345.84,146.312 346.507,144.812 346.5,143C 345.748,140.846 345.581,138.68 346,136.5C 349.014,133.319 351.848,129.986 354.5,126.5 Z M 331.5,156.5 C 332.822,156.33 333.989,156.663 335,157.5C 335.821,160.554 335.655,163.554 334.5,166.5C 330.709,164.004 329.709,160.671 331.5,156.5 Z M 377.5,251.5 C 381.33,253.617 380.996,255.45 376.5,257C 372.799,257.645 371.965,256.478 374,253.5C 375.302,252.915 376.469,252.249 377.5,251.5 Z"
       id="path1444" />
  </g>
  <g
     id="g1450"
     style="fill:#ffffff">
    <path
       style="opacity:1;fill:#ffffff"
       fill="#f9faf9"
       d="M 662.5,293.5 C 663.649,293.791 664.316,294.624 664.5,296C 663.563,299.365 661.729,302.199 659,304.5C 657.56,303.07 657.226,301.403 658,299.5C 659.332,297.34 660.832,295.34 662.5,293.5 Z"
       id="path1448" />
  </g>
</svg>
