<?xml version="1.0" encoding="UTF-8" standalone="no"?>
<svg
   version="1.1"
   width="1000px"
   height="224px"
   style="shape-rendering:geometricPrecision; text-rendering:geometricPrecision; image-rendering:optimizeQuality; fill-rule:evenodd; clip-rule:evenodd"
   id="svg1525"
   sodipodi:docname="auto-neverplayed.svg"
   inkscape:version="1.2.2 (732a01da63, 2022-12-09)"
   xmlns:inkscape="http://www.inkscape.org/namespaces/inkscape"
   xmlns:sodipodi="http://sodipodi.sourceforge.net/DTD/sodipodi-0.dtd"
   xmlns="http://www.w3.org/2000/svg"
   xmlns:svg="http://www.w3.org/2000/svg">
  <defs
     id="defs1529" />
  <sodipodi:namedview
     id="namedview1527"
     pagecolor="#ffffff"
     bordercolor="#000000"
     borderopacity="0.25"
     inkscape:showpageshadow="2"
     inkscape:pageopacity="0.0"
     inkscape:pagecheckerboard="0"
     inkscape:deskcolor="#d1d1d1"
     showgrid="false"
     inkscape:zoom="1.206"
     inkscape:cx="469.73466"
     inkscape:cy="111.9403"
     inkscape:window-width="1366"
     inkscape:window-height="705"
     inkscape:window-x="-8"
     inkscape:window-y="-8"
     inkscape:window-maximized="1"
     inkscape:current-layer="svg1525" />
  <g
     id="g1507"
     style="fill:#ffffff">
    <path
       style="opacity:1;fill:#ffffff"
       fill="#f9faf9"
       d="M 972.5,-0.5 C 974.5,-0.5 976.5,-0.5 978.5,-0.5C 985.046,3.34795 987.212,9.01462 985,16.5C 972.021,42.1491 962.688,69.1491 957,97.5C 955.67,104.469 955.003,111.469 955,118.5C 954.808,121.542 956.141,123.209 959,123.5C 961.657,122.923 964.157,121.923 966.5,120.5C 976.829,111.112 985.996,100.779 994,89.5C 995.264,87.393 997.097,86.393 999.5,86.5C 999.5,90.1667 999.5,93.8333 999.5,97.5C 991.275,114.232 979.275,127.732 963.5,138C 957.175,141.195 950.509,142.195 943.5,141C 939.698,138.913 937.198,135.746 936,131.5C 935.457,124.781 935.457,118.114 936,111.5C 926.554,123.475 915.054,132.975 901.5,140C 883.75,147.904 875.583,142.404 877,123.5C 863.233,134.965 847.4,141.299 829.5,142.5C 817.795,143.605 810.295,138.605 807,127.5C 806.744,100.262 816.91,77.7616 837.5,60C 839.996,58.9196 842.33,57.5862 844.5,56C 850.258,54.2427 854.592,55.9094 857.5,61C 861.116,62.4869 864.783,63.8202 868.5,65C 870.378,66.5429 871.878,68.3762 873,70.5C 875.154,87.6893 868.321,99.8559 852.5,107C 845.223,109.156 838.056,108.989 831,106.5C 825.127,115.879 827.461,122.546 838,126.5C 845.365,125.072 852.531,122.906 859.5,120C 867.445,115.053 875.111,109.72 882.5,104C 889.963,90.5342 899.63,78.8675 911.5,69C 921.899,61.7547 933.399,58.588 946,59.5C 953.54,40.3789 961.374,21.3789 969.5,2.5C 970.77,1.71237 971.77,0.712371 972.5,-0.5 Z M 849.5,72.5 C 853.151,72.818 855.151,74.818 855.5,78.5C 852.401,87.2664 846.401,92.9331 837.5,95.5C 835.058,94.616 834.225,92.9493 835,90.5C 838.211,83.1299 843.044,77.1299 849.5,72.5 Z M 933.5,73.5 C 936.714,74.4111 938.381,76.5777 938.5,80C 932.477,93.0229 924.477,104.69 914.5,115C 911.672,117.248 908.672,119.248 905.5,121C 901.798,122.393 899.798,121.226 899.5,117.5C 900.027,114.419 900.86,111.419 902,108.5C 908.747,97.4293 916.58,87.2626 925.5,78C 928.391,76.7258 931.058,75.2258 933.5,73.5 Z"
       id="path1505" />
  </g>
  <g
     id="g1511"
     style="fill:#ffffff">
    <path
       style="opacity:1;fill:#ffffff"
       fill="#f9faf9"
       d="M 696.5,223.5 C 693.167,223.5 689.833,223.5 686.5,223.5C 684.2,222.256 682.866,220.256 682.5,217.5C 683.919,210.261 687.252,204.094 692.5,199C 696.837,196.881 700.671,194.048 704,190.5C 715.167,172.321 727.667,155.154 741.5,139C 738.233,139.063 736.066,137.563 735,134.5C 733.878,127.551 733.211,120.551 733,113.5C 724.555,126.285 713.388,135.785 699.5,142C 689.876,144.58 683.043,141.413 679,132.5C 678.057,127.191 677.224,121.858 676.5,116.5C 667.606,124.898 658.272,132.731 648.5,140C 633.496,145.747 625.663,140.58 625,124.5C 616.636,132.767 606.803,138.6 595.5,142C 583.534,144.533 577.2,139.699 576.5,127.5C 578.943,110.728 583.11,94.395 589,78.5C 598.309,53.5504 608.976,29.217 621,5.5C 625.974,0.0659928 630.641,0.399326 635,6.5C 637.271,9.11953 637.938,12.1195 637,15.5C 620.664,48.0051 607.831,81.8384 598.5,117C 598.188,120.215 599.522,122.382 602.5,123.5C 620.945,115.224 635.112,102.224 645,84.5C 651.14,78.3604 657.306,72.1937 663.5,66C 669.473,61.0968 676.307,58.2635 684,57.5C 688.273,57.7433 691.607,59.7433 694,63.5C 698.517,59.4477 702.517,60.1144 706,65.5C 706.667,67.5 706.667,69.5 706,71.5C 697.405,87.6292 694.571,104.629 697.5,122.5C 699.191,124.256 701.191,124.756 703.5,124C 714.876,116.961 724.709,108.128 733,97.5C 734.089,93.9516 734.589,90.285 734.5,86.5C 731.783,77.3385 733.283,69.0052 739,61.5C 741.26,58.6258 744.093,56.6258 747.5,55.5C 749.383,55.8757 750.883,56.8757 752,58.5C 755.246,67.8953 756.246,77.562 755,87.5C 753.337,98.4551 752.671,109.455 753,120.5C 753.667,121.167 754.333,121.833 755,122.5C 765.226,110.608 773.392,97.4415 779.5,83C 778.15,79.1124 778.316,75.279 780,71.5C 782.99,64.1403 787.823,58.4736 794.5,54.5C 802.64,57.7762 805.807,63.7762 804,72.5C 800.818,82.7261 796.484,92.3928 791,101.5C 785.333,110.167 779.667,118.833 774,127.5C 756.821,147.162 740.655,167.495 725.5,188.5C 729.299,190.745 730.132,193.745 728,197.5C 722.124,203.525 715.291,208.192 707.5,211.5C 703.807,215.615 700.141,219.615 696.5,223.5 Z M 674.5,75.5 C 682.469,76.0474 684.635,80.0474 681,87.5C 676.144,95.2255 670.811,102.559 665,109.5C 661.661,113.335 657.828,116.668 653.5,119.5C 651.955,120.452 650.288,120.785 648.5,120.5C 651.271,102.07 659.937,87.0696 674.5,75.5 Z"
       id="path1509" />
  </g>
  <g
     id="g1515"
     style="fill:#ffffff">
    <path
       style="opacity:1;fill:#ffffff"
       fill="#f9faf9"
       d="M 526.5,25.5 C 534.093,24.9197 540.093,27.753 544.5,34C 555.887,34.6986 565.887,38.6986 574.5,46C 581.545,52.8792 583.378,61.0459 580,70.5C 569.524,88.6195 553.858,99.2861 533,102.5C 527.064,103.564 525.064,101.23 527,95.5C 534.108,87.1942 542.608,80.6942 552.5,76C 563.502,67.0683 563.169,58.7349 551.5,51C 549.047,50.2618 546.547,49.7618 544,49.5C 541.615,49.2556 539.782,50.089 538.5,52C 529.312,74.8963 521.312,98.2296 514.5,122C 515.52,124.026 517.187,125.359 519.5,126C 526.161,126.984 532.828,127.817 539.5,128.5C 539.66,130.199 539.494,131.866 539,133.5C 536.92,135.123 534.754,136.623 532.5,138C 525.311,139.943 517.978,140.943 510.5,141C 502.789,147.951 494.789,148.284 486.5,142C 480.384,134.178 482.051,128.678 491.5,125.5C 492.766,124.276 493.933,122.943 495,121.5C 501.677,99.1261 508.511,76.7927 515.5,54.5C 515,54.1667 514.5,53.8333 514,53.5C 510.773,54.8635 507.606,56.3635 504.5,58C 496.607,59.1146 493.774,55.948 496,48.5C 503.173,42.9964 511.006,38.663 519.5,35.5C 521.843,32.1376 524.176,28.8043 526.5,25.5 Z"
       id="path1513" />
  </g>
  <g
     id="g1519"
     style="fill:#ffffff">
    <path
       style="opacity:1;fill:#ffffff"
       fill="#f9faf9"
       d="M -0.5,139.5 C -0.5,136.167 -0.5,132.833 -0.5,129.5C 9.04475,107.06 18.7114,84.5598 28.5,62C 27.0149,59.8439 25.5149,57.6772 24,55.5C 23.3333,53.8333 23.3333,52.1667 24,50.5C 28.8489,44.9783 33.3489,39.145 37.5,33C 43.3903,30.8507 48.2236,32.3507 52,37.5C 52.1392,42.9481 51.8059,48.2815 51,53.5C 60.072,69.3088 69.4054,84.9755 79,100.5C 86.4965,78.674 95.1631,57.3407 105,36.5C 107.167,34.3333 109.333,32.1667 111.5,30C 118.051,27.1892 122.885,29.0225 126,35.5C 127.087,38.936 127.921,42.436 128.5,46C 128.561,47.7106 127.894,49.044 126.5,50C 122.873,50.5637 119.707,52.0637 117,54.5C 106.038,76.0901 98.2043,98.7568 93.5,122.5C 93.6017,125.37 94.7683,127.703 97,129.5C 97.1339,139.364 92.3006,143.53 82.5,142C 80.2462,140.623 78.0795,139.123 76,137.5C 64.8501,117.704 53.5168,98.0374 42,78.5C 31.6817,94.1217 26.1817,111.288 25.5,130C 22.4937,141.822 15.1603,146.489 3.5,144C 1.92975,142.603 0.596413,141.103 -0.5,139.5 Z"
       id="path1517" />
  </g>
  <g
     id="g1523"
     style="fill:#ffffff">
    <path
       style="opacity:1;fill:#ffffff"
       fill="#f9faf9"
       d="M 156.5,55.5 C 162.534,54.683 167.2,56.8497 170.5,62C 182.392,63.8864 187.226,70.7198 185,82.5C 177.862,103.566 163.528,111.566 142,106.5C 139.564,110.483 138.898,114.816 140,119.5C 141.872,123.271 144.872,125.604 149,126.5C 171.487,121.763 189.82,110.429 204,92.5C 205.453,81.1342 209.453,70.8008 216,61.5C 220.385,57.244 224.385,57.5773 228,62.5C 230.866,69.3636 231.199,76.3636 229,83.5C 221.07,94.9555 217.403,107.622 218,121.5C 218.561,122.022 219.228,122.355 220,122.5C 235.126,112.867 245.626,99.5334 251.5,82.5C 243.496,72.0389 245.496,63.8722 257.5,58C 261.394,55.7408 265.061,56.0742 268.5,59C 270.681,62.5464 272.181,66.3797 273,70.5C 280.862,75.0825 289.362,76.5825 298.5,75C 303.638,73.2095 307.638,69.8761 310.5,65C 314.52,60.9901 319.187,57.9901 324.5,56C 330.301,55.0884 334.968,57.0884 338.5,62C 347.785,63.1173 352.785,68.284 353.5,77.5C 350.53,96.4723 339.53,106.806 320.5,108.5C 316.8,108.657 313.3,107.991 310,106.5C 307.091,111.275 306.757,116.275 309,121.5C 311.305,123.716 313.972,125.383 317,126.5C 337.422,121.952 354.755,111.952 369,96.5C 369.939,87.1042 371.273,77.7709 373,68.5C 377.093,61.0443 383.26,56.8776 391.5,56C 395.125,58.0708 397.125,61.2375 397.5,65.5C 391.52,76.0898 388.02,87.4231 387,99.5C 393.333,90.5 399.667,81.5 406,72.5C 410.805,67.6659 415.972,63.1659 421.5,59C 427.154,55.7155 432.821,55.3822 438.5,58C 442.565,66.089 440.898,73.089 433.5,79C 429.397,79.2866 425.397,78.9532 421.5,78C 418.061,80.4339 414.894,83.2672 412,86.5C 399.626,102.575 389.293,119.909 381,138.5C 376.67,143.267 371.837,143.767 366.5,140C 363.529,137.703 361.862,134.703 361.5,131C 362.189,126.944 363.189,122.944 364.5,119C 364.167,118.5 363.833,118 363.5,117.5C 351.449,128.029 337.782,135.862 322.5,141C 292.91,147.616 281.076,136.116 287,106.5C 289.113,100.156 291.613,93.9895 294.5,88C 286.5,88.6667 278.5,88.6667 270.5,88C 265.709,95.0814 261.042,102.248 256.5,109.5C 249.647,118.52 241.647,126.353 232.5,133C 227.48,135.7 222.48,138.367 217.5,141C 213.221,142.244 208.888,142.577 204.5,142C 199.661,140.169 196.827,136.669 196,131.5C 195.788,126.742 195.622,122.075 195.5,117.5C 180.237,132.091 162.07,140.424 141,142.5C 128.831,143.586 121.165,138.253 118,126.5C 118.352,100.462 128.185,78.6284 147.5,61C 150.596,59.1282 153.596,57.2948 156.5,55.5 Z M 160.5,72.5 C 165.869,73.2271 167.702,76.2271 166,81.5C 162.185,90.0486 155.852,94.3819 147,94.5C 146.5,94.1667 146,93.8333 145.5,93.5C 148.591,85.0849 153.591,78.0849 160.5,72.5 Z M 328.5,72.5 C 332.151,72.818 334.151,74.818 334.5,78.5C 332.494,85.6684 328.161,90.8351 321.5,94C 319.109,95.0349 316.776,95.2015 314.5,94.5C 314.167,94 313.833,93.5 313.5,93C 316.836,84.8481 321.836,78.0147 328.5,72.5 Z"
       id="path1521" />
  </g>
</svg>
