<?xml version="1.0" encoding="UTF-8" standalone="no"?>
<svg
   version="1.1"
   width="256px"
   height="256px"
   style="shape-rendering:geometricPrecision; text-rendering:geometricPrecision; image-rendering:optimizeQuality; fill-rule:evenodd; clip-rule:evenodd"
   id="svg80"
   sodipodi:docname="bennugd.svg"
   inkscape:version="1.2.2 (732a01da63, 2022-12-09)"
   xmlns:inkscape="http://www.inkscape.org/namespaces/inkscape"
   xmlns:sodipodi="http://sodipodi.sourceforge.net/DTD/sodipodi-0.dtd"
   xmlns="http://www.w3.org/2000/svg"
   xmlns:svg="http://www.w3.org/2000/svg">
  <defs
     id="defs84" />
  <sodipodi:namedview
     id="namedview82"
     pagecolor="#ffffff"
     bordercolor="#000000"
     borderopacity="0.25"
     inkscape:showpageshadow="2"
     inkscape:pageopacity="0.0"
     inkscape:pagecheckerboard="true"
     inkscape:deskcolor="#d1d1d1"
     showgrid="false"
     inkscape:zoom="2.0507812"
     inkscape:cx="119.71048"
     inkscape:cy="128.24381"
     inkscape:window-width="1366"
     inkscape:window-height="705"
     inkscape:window-x="-8"
     inkscape:window-y="-8"
     inkscape:window-maximized="1"
     inkscape:current-layer="svg80" />
  <g
     id="g46"
     style="fill:#ffffff">
    <path
       style="opacity:1;fill:#ffffff"
       fill="#f9f9f9"
       d="M 124.5,170.5 C 132.702,180.373 141.702,189.706 151.5,198.5C 163.86,186.305 176.36,174.305 189,162.5C 197.458,169.956 205.625,177.79 213.5,186C 215.113,186.089 216.28,185.255 217,183.5C 234.984,151.663 237.317,118.663 224,84.5C 218.53,72.8844 211.363,62.5511 202.5,53.5C 180.322,31.162 153.488,20.4953 122,21.5C 66.8422,28.3246 33.8422,58.9912 23,113.5C 20.4315,134.422 23.5982,154.422 32.5,173.5C 33.0016,174.521 33.6683,174.688 34.5,174C 49.5,159 64.5,144 79.5,129C 82.4056,129.852 84.9056,131.685 87,134.5C 87.6667,135.5 87.6667,136.5 87,137.5C 77.6071,149.647 71.2738,163.313 68,178.5C 65.0309,183.634 61.8642,188.634 58.5,193.5C 59.9845,195.824 61.8178,197.824 64,199.5C 66.0057,197.998 67.6723,198.331 69,200.5C 72.4651,196.033 76.2984,191.867 80.5,188C 85.7432,186.543 91.0766,185.876 96.5,186C 92.0382,202.687 90.2048,219.52 91,236.5C 34.1039,212.407 8.77058,169.407 15,107.5C 24.9696,61.8629 52.1363,31.6962 96.5,17C 149.684,5.60984 192.184,21.7765 224,65.5C 241.537,96.3926 245.537,129.059 236,163.5C 220.484,205.352 190.984,231.185 147.5,241C 137.506,241.5 127.506,241.666 117.5,241.5C 114.849,228.229 112.516,214.896 110.5,201.5C 110.978,191.232 114.145,181.898 120,173.5C 120.908,171.561 122.408,170.561 124.5,170.5 Z"
       id="path44" />
  </g>
  <g
     id="g50"
     style="fill:#ffffff">
    <path
       style="opacity:1;fill:#ffffff"
       fill="#f9f9f9"
       d="M 188.5,49.5 C 183.167,48.3998 177.834,47.2331 172.5,46C 167.833,43.3333 163.167,40.6667 158.5,38C 149.024,35.6568 142.19,38.8235 138,47.5C 136.773,50.9072 135.94,54.4072 135.5,58C 138.151,68.1128 140.484,78.2795 142.5,88.5C 142.881,95.5688 140.215,101.069 134.5,105C 126.66,107.254 119.327,110.587 112.5,115C 105.976,120.358 99.3096,125.525 92.5,130.5C 88.5,126.833 84.5,123.167 80.5,119.5C 65.2075,134.292 50.0408,149.292 35,164.5C 19.4659,118.46 29.9659,79.6262 66.5,48C 106.552,21.0412 146.885,20.7078 187.5,47C 188.252,47.6708 188.586,48.5041 188.5,49.5 Z"
       id="path48" />
  </g>
  <g
     id="g54"
     style="fill:#ffffff">
    <path
       style="opacity:1;fill:#ffffff"
       fill="#f9f9f9"
       d="M 194.5,52.5 C 221.606,79.3254 231.772,111.659 225,149.5C 222.536,159.423 218.703,168.757 213.5,177.5C 205.152,169.319 196.986,160.986 189,152.5C 176.653,165.014 164.153,177.348 151.5,189.5C 143.479,181.812 135.479,174.145 127.5,166.5C 127.351,165.448 127.517,164.448 128,163.5C 134.276,157.884 137.943,150.884 139,142.5C 156.623,120.716 161.29,96.3825 153,69.5C 151.729,66.5674 150.062,63.9007 148,61.5C 146.527,54.4756 149.36,50.809 156.5,50.5C 163.534,51.6601 170.534,51.6601 177.5,50.5C 183.114,51.4949 188.78,52.1616 194.5,52.5 Z"
       id="path52" />
  </g>
  <g
     id="g58"
     style="fill:#ffffff">
    <path
       style="opacity:1;fill:#ffffff"
       fill="#a07971"
       d="M 196.5,52.5 C 195.833,52.5 195.167,52.5 194.5,52.5C 192.5,51.5 190.5,50.5 188.5,49.5C 190.527,48.8753 192.36,48.8753 194,49.5C 195.417,50.0779 196.25,51.0779 196.5,52.5 Z"
       id="path56" />
  </g>
  <g
     id="g62"
     style="fill:#ffffff">
    <path
       style="opacity:1;fill:#ffffff"
       fill="#e5d0c5"
       d="M 196.5,52.5 C 198.028,52.5173 198.528,53.184 198,54.5C 197.283,53.9558 196.783,53.2891 196.5,52.5 Z"
       id="path60" />
  </g>
  <g
     id="g66"
     style="fill:#ffffff">
    <path
       style="opacity:1;fill:#ffffff"
       fill="#22110f"
       d="M 202.5,53.5 C 202.052,55.4646 201.052,55.7979 199.5,54.5C 200.325,53.6143 201.325,53.281 202.5,53.5 Z"
       id="path64" />
  </g>
  <g
     id="g70"
     style="fill:#ffffff">
    <path
       style="opacity:1;fill:#ffffff"
       fill="#9b7871"
       d="M 89.5,131.5 C 90.3764,131.369 91.0431,131.702 91.5,132.5C 88.7404,136.564 88.0737,136.231 89.5,131.5 Z"
       id="path68" />
  </g>
  <g
     id="g74"
     style="fill:#ffffff">
    <path
       style="opacity:1;fill:#ffffff"
       fill="#a5837c"
       d="M 127.5,166.5 C 126.488,167.872 125.488,169.205 124.5,170.5C 123.708,168.244 124.708,166.91 127.5,166.5 Z"
       id="path72" />
  </g>
  <g
     id="g78"
     style="fill:#ffffff">
    <path
       style="opacity:1;fill:#ffffff"
       fill="#f9faf9"
       d="M 109.5,176.5 C 110.641,179.64 110.808,182.973 110,186.5C 108.912,191.684 107.746,196.851 106.5,202C 110.077,215.052 113.077,228.218 115.5,241.5C 107.927,241.219 100.594,239.719 93.5,237C 92.9186,236.107 92.5852,235.107 92.5,234C 93.7239,218.752 95.5572,203.585 98,188.5C 100.691,183.311 104.524,179.311 109.5,176.5 Z"
       id="path76" />
  </g>
</svg>
