<?xml version="1.0" encoding="UTF-8" standalone="no"?>
<svg
   version="1.1"
   width="1000px"
   height="256px"
   style="shape-rendering:geometricPrecision; text-rendering:geometricPrecision; image-rendering:optimizeQuality; fill-rule:evenodd; clip-rule:evenodd"
   id="svg1862"
   sodipodi:docname="bomberman.svg"
   inkscape:version="1.2.2 (732a01da63, 2022-12-09)"
   xmlns:inkscape="http://www.inkscape.org/namespaces/inkscape"
   xmlns:sodipodi="http://sodipodi.sourceforge.net/DTD/sodipodi-0.dtd"
   xmlns="http://www.w3.org/2000/svg"
   xmlns:svg="http://www.w3.org/2000/svg">
  <defs
     id="defs1866" />
  <sodipodi:namedview
     id="namedview1864"
     pagecolor="#ffffff"
     bordercolor="#000000"
     borderopacity="0.25"
     inkscape:showpageshadow="2"
     inkscape:pageopacity="0.0"
     inkscape:pagecheckerboard="0"
     inkscape:deskcolor="#d1d1d1"
     showgrid="false"
     inkscape:zoom="1.224"
     inkscape:cx="500"
     inkscape:cy="128.26797"
     inkscape:window-width="1366"
     inkscape:window-height="705"
     inkscape:window-x="-8"
     inkscape:window-y="-8"
     inkscape:window-maximized="1"
     inkscape:current-layer="svg1862" />
  <g
     id="g1832"
     style="fill:#ffffff">
    <path
       style="opacity:1;fill:#ffffff"
       fill="#f9faf9"
       d="M 328.5,10.5 C 329.805,12.3972 330.471,14.7305 330.5,17.5C 329.739,22.5428 329.739,27.5428 330.5,32.5C 335.059,30.6373 339.559,28.6373 344,26.5C 345.578,25.4528 347.078,25.4528 348.5,26.5C 342.714,33.2411 337.047,40.0744 331.5,47C 335.99,48.5494 340.323,50.3827 344.5,52.5C 339.563,54.9809 334.397,56.9809 329,58.5C 325.882,56.3851 323.048,53.8851 320.5,51C 317.647,49.4664 314.814,47.9664 312,46.5C 311.582,44.212 312.249,42.212 314,40.5C 316.833,38.3333 319.667,36.1667 322.5,34C 320.006,31.0529 317.339,31.0529 314.5,34C 311.022,37.2992 308.022,40.9659 305.5,45C 298.45,45.2019 291.45,45.7019 284.5,46.5C 280.132,40.2705 276.132,33.7705 272.5,27C 272.833,26.5 273.167,26 273.5,25.5C 281.686,29.4244 290.019,33.091 298.5,36.5C 300.062,28.7899 301.728,21.1232 303.5,13.5C 306.5,18.1667 309.5,22.8333 312.5,27.5C 317.827,21.8392 323.16,16.1725 328.5,10.5 Z"
       id="path1830" />
  </g>
  <g
     id="g1836"
     style="fill:#ffffff">
    <path
       style="opacity:1;fill:#ffffff"
       fill="#f9faf9"
       d="M 141.5,32.5 C 159.209,32.0859 176.875,32.5859 194.5,34C 219.768,40.0456 225.602,54.2123 212,76.5C 200.646,93.1903 186.146,106.357 168.5,116C 173.582,117.014 178.582,118.347 183.5,120C 185.666,121.002 187.333,122.502 188.5,124.5C 182.585,138.913 180.085,153.913 181,169.5C 168.358,188.134 151.524,201.634 130.5,210C 109.187,220.215 86.8538,227.215 63.5,231C 43.9745,233.313 24.4745,235.813 5,238.5C 3.83333,238.167 2.66667,237.833 1.5,237.5C 40.1009,170.241 79.1009,103.241 118.5,36.5C 126.199,34.5945 133.866,33.2612 141.5,32.5 Z M 144.5,61.5 C 153.118,61.5598 161.451,63.0598 169.5,66C 175.038,70.3927 175.871,75.5593 172,81.5C 158.691,96.8843 141.858,103.551 121.5,101.5C 129.194,88.1495 136.861,74.8162 144.5,61.5 Z M 98.5,143.5 C 110.802,142.71 122.802,144.21 134.5,148C 140.372,151.016 141.872,155.516 139,161.5C 120.781,180.807 98.2806,190.64 71.5,191C 80.7557,175.261 89.7557,159.428 98.5,143.5 Z"
       id="path1834" />
  </g>
  <g
     id="g1840"
     style="fill:#ffffff">
    <path
       style="opacity:1;fill:#ffffff"
       fill="#f9faf9"
       d="M 502.5,34.5 C 511.173,34.3336 519.84,34.5002 528.5,35C 547.963,36.1233 556.463,46.29 554,65.5C 550.53,77.628 543.363,86.7947 532.5,93C 542.243,96.3044 547.243,103.138 547.5,113.5C 542.555,140.285 526.888,157.452 500.5,165C 477.249,171.708 453.582,175.708 429.5,177C 429.167,176.667 428.833,176.333 428.5,176C 430.963,155.937 432.463,135.771 433,115.5C 420.913,136.672 409.08,158.006 397.5,179.5C 388.242,181.126 378.908,181.792 369.5,181.5C 372.66,160.886 375.16,140.219 377,119.5C 362.085,141.662 347.418,163.996 333,186.5C 328.252,187.635 323.419,187.802 318.5,187C 337.607,167.635 347.441,144.468 348,117.5C 368.339,90.3341 388.839,63.3341 409.5,36.5C 410.427,57.829 411.261,79.1624 412,100.5C 426.619,79.3884 441.786,58.7217 457.5,38.5C 458.314,40.7662 458.814,43.0995 459,45.5C 459.423,76.875 460.423,108.208 462,139.5C 474.333,106.5 486.667,73.5 499,40.5C 499.713,38.1475 500.879,36.1475 502.5,34.5 Z M 515.5,55.5 C 521.883,54.4763 527.383,56.143 532,60.5C 533.52,67.6384 531.02,73.1384 524.5,77C 519.033,80.8242 513.033,82.1576 506.5,81C 509.999,72.6703 512.999,64.1703 515.5,55.5 Z M 496.5,110.5 C 503.16,110.665 509.493,112.165 515.5,115C 519.281,118.263 519.448,121.763 516,125.5C 507.888,134.978 497.721,139.644 485.5,139.5C 489.371,129.883 493.038,120.216 496.5,110.5 Z"
       id="path1838" />
  </g>
  <g
     id="g1844"
     style="fill:#ffffff">
    <path
       style="opacity:1;fill:#ffffff"
       fill="#f9faf9"
       d="M 583.5,34.5 C 604.167,34.5 624.833,34.5 645.5,34.5C 643.553,42.4568 641.22,50.2901 638.5,58C 625.835,58.8589 613.169,59.6922 600.5,60.5C 597.833,67.5 595.167,74.5 592.5,81.5C 604.482,82.499 616.482,82.8323 628.5,82.5C 626.414,90.6773 623.747,98.6773 620.5,106.5C 608.151,107.184 595.818,108.018 583.5,109C 580.833,117 578.167,125 575.5,133C 588.552,133.339 601.552,132.839 614.5,131.5C 615.206,133.766 615.039,136.099 614,138.5C 612.025,144.759 609.859,150.925 607.5,157C 585.207,159.775 562.874,161.275 540.5,161.5C 554.644,119.068 568.977,76.735 583.5,34.5 Z"
       id="path1842" />
  </g>
  <g
     id="g1848"
     style="fill:#ffffff">
    <path
       style="opacity:1;fill:#ffffff"
       fill="#f9faf9"
       d="M 658.5,35.5 C 673.504,35.3334 688.504,35.5001 703.5,36C 721.783,43.7425 725.616,56.2425 715,73.5C 706.227,84.0495 695.894,92.7161 684,99.5C 685.051,112.137 686.218,124.803 687.5,137.5C 689.144,137.714 690.644,137.38 692,136.5C 714.167,103.5 736.333,70.5 758.5,37.5C 759.086,37.7093 759.586,38.0426 760,38.5C 761.113,53.8544 762.446,69.1877 764,84.5C 774.667,69.1667 785.333,53.8333 796,38.5C 796.333,38.8333 796.667,39.1667 797,39.5C 798.874,65.1483 800.374,90.8149 801.5,116.5C 803.39,116.703 804.89,116.037 806,114.5C 823.376,88.2472 840.876,62.0806 858.5,36C 865.158,35.5004 871.825,35.3337 878.5,35.5C 879.481,61.1673 880.481,86.834 881.5,112.5C 882.5,112.5 883.5,112.5 884.5,112.5C 891.52,87.09 898.853,61.7566 906.5,36.5C 913.803,35.5027 921.137,35.1694 928.5,35.5C 933.188,58.587 938.355,81.587 944,104.5C 950.608,81.5108 957.108,58.5108 963.5,35.5C 970.5,35.5 977.5,35.5 984.5,35.5C 976.305,67.9442 967.639,100.278 958.5,132.5C 948.188,133.499 937.855,133.832 927.5,133.5C 923.963,114.687 919.796,96.0199 915,77.5C 909.476,96.931 903.642,116.264 897.5,135.5C 896.271,136.281 894.938,136.781 893.5,137C 883.117,137.547 872.783,138.381 862.5,139.5C 861.914,139.291 861.414,138.957 861,138.5C 860.501,132.509 860.334,126.509 860.5,120.5C 848.834,120.939 837.167,121.439 825.5,122C 823.671,122.273 822.171,123.107 821,124.5C 816.887,130.947 812.387,137.114 807.5,143C 798.84,143.5 790.173,143.666 781.5,143.5C 781.748,127.825 781.914,112.159 782,96.5C 772.96,112.748 763.793,128.915 754.5,145C 748.584,145.807 742.75,145.641 737,144.5C 737.837,130.224 738.171,115.891 738,101.5C 728.207,117.588 718.041,133.421 707.5,149C 692.871,150.887 678.205,151.887 663.5,152C 662.052,137.579 660.886,123.079 660,108.5C 659.586,108.043 659.086,107.709 658.5,107.5C 652.463,122.253 646.963,137.253 642,152.5C 641.167,153.333 640.333,154.167 639.5,155C 632.174,155.5 624.841,155.666 617.5,155.5C 631.167,115.5 644.833,75.5 658.5,35.5 Z M 676.5,51.5 C 681.777,50.9312 686.777,51.7645 691.5,54C 695.489,58.2966 696.322,63.1299 694,68.5C 687.721,79.3934 678.221,84.7267 665.5,84.5C 669.364,73.5738 673.031,62.5738 676.5,51.5 Z M 859.5,65.5 C 860.495,76.988 860.828,88.6547 860.5,100.5C 852.826,100.666 845.159,100.5 837.5,100C 845.229,88.6976 852.562,77.1976 859.5,65.5 Z"
       id="path1846" />
  </g>
  <g
     id="g1852"
     style="fill:#ffffff">
    <path
       style="opacity:1;fill:#ffffff"
       fill="#f9faf9"
       d="M 292.5,47.5 C 298.974,47.6628 305.307,48.6628 311.5,50.5C 311.833,50.8333 312.167,51.1667 312.5,51.5C 310.586,55.3228 309.253,59.3228 308.5,63.5C 298.312,61.2232 287.979,60.0565 277.5,60C 279.78,56.0533 282.447,52.3866 285.5,49C 288.036,48.8138 290.369,48.3138 292.5,47.5 Z"
       id="path1850" />
  </g>
  <g
     id="g1856"
     style="fill:#ffffff">
    <path
       style="opacity:1;fill:#ffffff"
       fill="#f9faf9"
       d="M 317.5,53.5 C 320.372,54.5256 322.872,56.1923 325,58.5C 325.134,63.8592 324.634,69.1925 323.5,74.5C 319.833,71.6667 316.167,68.8333 312.5,66C 314.586,61.9961 316.252,57.8295 317.5,53.5 Z"
       id="path1854" />
  </g>
  <g
     id="g1860"
     style="fill:#ffffff">
    <path
       style="opacity:1;fill:#ffffff"
       fill="#f9faf9"
       d="M 271.5,67.5 C 295.431,64.8613 315.265,72.528 331,90.5C 343.025,110.586 344.692,131.586 336,153.5C 316.562,193.81 284.395,213.643 239.5,213C 206.147,208.154 188.814,188.987 187.5,155.5C 187.514,138.138 192.681,122.471 203,108.5C 220.518,85.7879 243.352,72.1213 271.5,67.5 Z M 252.5,85.5 C 269.714,85.2595 273.214,92.2595 263,106.5C 256.377,112.819 248.544,115.319 239.5,114C 234.574,111.647 232.74,107.814 234,102.5C 237.833,94.1621 244,88.4954 252.5,85.5 Z"
       id="path1858" />
  </g>
</svg>
