<?xml version="1.0" encoding="UTF-8" standalone="no"?>
<svg
   version="1.0"
   width="369.000000pt"
   height="211.000000pt"
   viewBox="0 0 369.000000 211.000000"
   preserveAspectRatio="xMidYMid meet"
   id="svg264"
   sodipodi:docname="cgenius.svg"
   inkscape:version="1.2.2 (732a01da63, 2022-12-09)"
   xmlns:inkscape="http://www.inkscape.org/namespaces/inkscape"
   xmlns:sodipodi="http://sodipodi.sourceforge.net/DTD/sodipodi-0.dtd"
   xmlns="http://www.w3.org/2000/svg"
   xmlns:svg="http://www.w3.org/2000/svg">
  <defs
     id="defs268" />
  <sodipodi:namedview
     id="namedview266"
     pagecolor="#ffffff"
     bordercolor="#000000"
     borderopacity="0.25"
     inkscape:showpageshadow="2"
     inkscape:pageopacity="0.0"
     inkscape:pagecheckerboard="0"
     inkscape:deskcolor="#d1d1d1"
     inkscape:document-units="pt"
     showgrid="false"
     inkscape:zoom="1.5115134"
     inkscape:cx="119.74753"
     inkscape:cy="137.61042"
     inkscape:window-width="1366"
     inkscape:window-height="705"
     inkscape:window-x="-8"
     inkscape:window-y="-8"
     inkscape:window-maximized="1"
     inkscape:current-layer="g262" />
  <g
     transform="translate(0.000000,211.000000) scale(0.100000,-0.100000)"
     fill="#000000"
     stroke="none"
     id="g262">
    <path
       d="m 184,2006 c -95,-42 -116,-162 -64,-366 26,-104 59,-175 110,-239 33,-42 37,-51 25,-61 -25,-21 -17,-72 49,-307 35,-126 99,-354 141,-508 41,-154 81,-293 87,-308 24,-61 -67,-57 1345,-57 961,0 1299,3 1318,12 30,13 18,-24 194,619 72,261 131,491 131,510 0,19 5,40 11,46 7,7 14,57 17,115 4,86 8,105 24,116 28,20 56,83 78,174 23,97 25,147 7,191 -29,68 -70,79 -241,62 -109,-10 -130,-15 -151,-35 -21,-20 -28,-22 -50,-12 -14,7 -54,12 -88,12 -70,0 -146,-30 -186,-73 l -24,-26 -34,29 c -18,16 -46,32 -61,35 -15,4 -35,8 -45,10 -9,2 -84,-1 -165,-7 -152,-10 -189,-21 -199,-58 -5,-17 -6,-17 -22,-1 -14,14 -41,19 -116,24 -98,6 -131,-1 -147,-28 -6,-10 -18,-8 -50,8 -35,18 -72,22 -235,30 -231,12 -248,8 -265,-59 -12,-42 -28,-60 -28,-30 0,8 -12,28 -26,45 -24,28 -31,31 -88,31 -42,0 -74,6 -101,20 -39,20 -161,28 -200,14 -22,-9 -45,-56 -46,-96 l -1,-33 -19,43 c -11,23 -30,48 -42,56 -27,17 -176,30 -196,17 -10,-6 -22,-3 -40,10 -35,25 -139,51 -174,43 -16,-3 -44,-20 -63,-36 l -34,-30 -28,27 c -40,41 -65,55 -124,71 -66,17 -144,17 -184,0 z m 209,-83 c 73,-30 133,-133 160,-280 l 7,-33 c -35.66667,0 -71.33333,0 -107,0 l -16,58 c -23,85 -45,107 -101,107 -30,0 -50,-5 -57,-15 -16,-23 -2,-127 25,-186 29,-63 61,-86 113,-82 35,3 38,5 38,33 0,28 3,30 41,33 22,2 53,-2 68,-8 27,-10 28,-13 24,-61 -11,-111 -122,-160 -235,-104 -82,41 -138,130 -173,276 -21,91 -26,192 -10,234 21,54 124,67 223,28 z m 3189,0 c 55,-49 -27,-333 -97,-333 -12,0 -14,-4 -5,-19 11,-22 13,-96 4,-153 -7,-38 -7,-38 -55,-38 -49,0 -49,0 -42,28 4,15 8,47 8,72 0,36 -4,46 -23,56 -43,21 -59,8 -71,-59 -20,-101 -16,-97 -73,-97 -47,0 -50,1 -44,23 3,12 27,117 52,232 70,319 55,283 122,290 31,3 64,8 72,9 49,11 135,5 152,-11 z M 735,1881 c 23,-10 53,-32 67,-49 53,-63 94,-222 86,-333 -3,-48 -10,-65 -33,-89 -25,-26 -36,-30 -79,-30 -65,0 -108,26 -137,81 -35,69 -69,223 -69,311 0,70 3,82 25,103 30,31 82,33 140,6 z m 2450,7 c 38,-17 50,-69 36,-162 -6,-42 -17,-91 -25,-110 -12,-29 -19,-34 -61,-39 -26,-4 -71,-7 -100,-7 -39,0 -54,-4 -59,-16 -22,-56 12,-100 69,-90 29,6 39,14 51,42 13,30 19,34 50,34 36,0 36,-1 30,-32 -18,-93 -68,-140 -154,-146 -134,-10 -165,54 -126,258 29,157 71,228 154,264 42,18 100,20 135,4 z m -1846,-435 1,-53 h -49 c -60,0 -58,-5 -67,155 -8,139 -15,132 -40,-36 -9,-64 -20,-122 -24,-129 -16,-26 -37,0 -84,106 -27,60 -52,113 -56,117 2.6748,-71.889 21.0497,-136.4062 33,-215 l 6,-38 c -31.9647,2.4834 -69.00141,-4.3012 -99,3 0,41 -63,364 -74,376 -19.79586,36.6595 -21.86411,69.8019 -28,111 45.67321,0.3957 91.33415,-0.3382 137,-1 l 59,-122 59,-122 c 11.4851,68.8977 31.6217,137.2012 37,207 0,44 18,54 96,48 l 69,-5 c 6.2408,-133.9308 23.0347,-267.8752 24,-402 z m 1502,389 c 27,-24 32,-36 36,-92 9,-117 -39,-279 -98,-336 -28,-27 -37,-29 -131,-34 -55,-3 -104,-2 -109,1 -13,8 48,471 63,481 7,4 57,8 110,8 93,0 99,-1 129,-28 z m -291,-1 c 0,-42 -61,-436 -69,-444 -39.7182,-9.6116 -71.7801,-4.3898 -114,-2 -13.2422,66.8603 -96.8448,247.2314 -97,245 -1,-35 -30,-273 -33,-276 -2,-2 -18,-1 -35,2 -38,8 -38,3 -17,194 18,168 18,170 0,170 -16,0 -19,19 -9,69 l 7,32 c 53.6656,-2.0273 107.3329,-4.0123 161,-6 l 43,-130 c 23,-71 43,-125 43,-120 2,35 39,266 45,274 3,6 22,11 41,11 27,0 34,-4 34,-19 z m -760,-8 c 0,-10 3,-116 7,-235 l 6,-218 h -60 c -60,0 -61,0 -67,31 -3,17 -6,73 -7,123 -1,146 -12,146 -43,0 -16,-71 -31,-132 -35,-136 -3,-3 -18,-4 -33,-1 -24,5 -31,16 -62,107 l -35,101 6,-119 6,-119 c -27.1033,4.9975 -54.5994,9.0329 -81,17 -2,3 -42,407 -42,434 41.613,20.3265 76.6713,12 129,12 l 30,-97 c 16,-54 33,-110 37,-126 12,-49 20,-37 42,61 41,180 36,170 90,175 108,8 112,8 112,-10 z m 211,-3 c 65,-12 112,-56 130,-122 10,-37 8,-324 -3,-333 -2,-1 -22,-5 -45,-9 -41,-6 -43,-5 -43,20 v 26 l -19,-23 c -17,-21 -28,-24 -77,-23 -74,2 -99,27 -109,108 -15,118 10,149 129,156 76,5 81,7 84,28 2,13 -4,32 -14,43 -14,16 -31,19 -111,19 h -93 v 60 60 h 59 c 32,0 83,-4 112,-10 z M 3436,1287 3308,826 C 3237,573 3173,341 3165,313 l -16,-53 h -226 l -18,63 c -29,102 -142,448 -169,512 l -24,60 -6,-55 c -24.5932,-191.80537 10.7506,-425.12247 -32,-595 l -109,-3 c -59,-1 -111,1 -115,5 -6,7 20,421 44,691 l 5,62 c -161.3413,-0.93433 -322.6697,-3.00004 -484,-5 -2.0251,-58.33247 -4.0114,-116.66628 -6,-175 h 294 c -11.2733,-80.30341 -21.4571,-144.43633 -35,-222 -86,4.66667 -172,9.33333 -258,14 v -66 -66 h 350 c -1.9153,-78.01228 4.1307,-162.31226 13,-230 h -270 -270 l -6,113 c -5.9033,84.61303 -7,169.25213 -7,254 l -186,8 c -102,4 -187,5 -189,3 -1.2406,-52.22471 3.4467,-92.60099 8,-148 92.2154,-4.57023 186.1158,6.61414 278,-2 5.1515,-80.58768 8.6116,-141.78567 14,-228 -147.5293,9.4422 -299.3139,-13.33106 -446,3 0,1 -23,169 -52,372 l -52,370 -102,6 -5,-63 c -9,-105 -65,-185 -158,-227 -43,-19 -44,-20 -15,-21 75,-2 190,-89 244,-184 30,-51 73,-173 85,-233 l 6,-33 h -219 l -11,58 C 1001.0966,433.09013 927.25631,548.02189 814,550 669.17608,522.7429 757.14074,380.60576 780,253 721.84616,231.69714 670.22263,233.3069 600,244 c 0,3 -63,236 -140,518 -77,282 -140,516 -140,520 49.85314,9.9291 226.62691,19.2688 235,-14 37.57807,-112.8733 48.41412,-444.86884 155,-440 119,8 156,119 115,347 -8,44 -11,83 -6,88 316.0461,9.4844 556.6139,4.2931 896,2 -1.5457,-83.2214 21.7573,-170.3179 11,-253 -111.4703,-10.2789 -196.4042,-11.1421 -316,-15 -0.2519,-62.80029 5.9315,-115.40268 13,-177 h 387 c -3.5801,142.35672 -8.3227,284.6766 -13,427 366.2528,10.6679 702.5921,14.6125 1047,18 l 16,-55 c 9,-30 47,-178 86,-327 38,-150 71,-273 74,-273 4,0 41,168 143,648 l 9,42 c 94.737,0.8162 171.7371,-5.0267 264,-13 z"
       id="path250"
       sodipodi:nodetypes="cccccccsccsscccccscscccccccscccccscscccccccccccccccccccscccsccccccccsccscsccscccccccccscsccccccscccssccccccscccccccccccccccccccccccscscccsccsccccccsssccscccsccccccccccccsccccscccccccscccsccccccccccccccccccccccccccccccccccccccccccccccccsccccccccccccccsccc"
       style="fill:#ffffff" />
    <path
       d="M3367 1783 c-3 -4 -8 -28 -12 -53 -3 -25 -9 -53 -11 -62 -5 -15 2 -18 40 -18 24 0 56 4 69 9 28 11 50 57 45 97 -3 28 -5 29 -65 32 -34 2 -63 -1 -66 -5z"
       id="path252"
       style="fill:#ffffff" />
    <path
       d="M700 1733 c0 -42 -14 -63 -42 -63 -26 0 -22 -12 12 -45 22 -21 30 -38 30 -64 0 -55 13 -66 34 -30 l18 31 34 -33 c39 -38 40 -36 15 29 -13 31 -16 54 -10 63 16 25 10 47 -14 53 -15 3 -30 20 -42 46 -25 55 -35 59 -35 13z"
       id="path254"
       style="fill:#ffffff" />
    <path
       d="M3033 1738 c-19 -23 -43 -77 -43 -94 0 -15 8 -16 66 -11 37 4 69 9 72 12 3 3 6 27 6 53 l1 47 -46 3 c-29 2 -50 -2 -56 -10z"
       id="path256"
       style="fill:#ffffff" />
    <path
       d="M2688 1712 l-36 -3 -12 -87 c-18 -138 -20 -127 24 -130 22 -2 49 -1 62 2 30 8 64 80 64 137 0 69 -23 88 -102 81z"
       id="path258"
       style="fill:#ffffff" />
    <path
       d="M1985 1571 c-56 -9 -65 -17 -65 -56 0 -77 111 -49 126 33 7 35 9 34 -61 23z"
       id="path260"
       style="fill:#ffffff" />
  </g>
</svg>
