<?xml version="1.0" standalone="no"?>
<!DOCTYPE svg PUBLIC "-//W3C//DTD SVG 20010904//EN"
 "http://www.w3.org/TR/2001/REC-SVG-20010904/DTD/svg10.dtd">
<svg version="1.0" xmlns="http://www.w3.org/2000/svg"
 width="369.000000pt" height="211.000000pt" viewBox="0 0 369.000000 211.000000"
 preserveAspectRatio="xMidYMid meet">

<g transform="translate(0.000000,211.000000) scale(0.100000,-0.100000)"
fill="#000000" stroke="none">
<path d="M184 2006 c-95 -42 -116 -162 -64 -366 26 -104 59 -175 110 -239 33
-42 37 -51 25 -61 -25 -21 -17 -72 49 -307 35 -126 99 -354 141 -508 41 -154
81 -293 87 -308 24 -61 -67 -57 1345 -57 961 0 1299 3 1318 12 30 13 18 -24
194 619 72 261 131 491 131 510 0 19 5 40 11 46 7 7 14 57 17 115 4 86 8 105
24 116 28 20 56 83 78 174 23 97 25 147 7 191 -29 68 -70 79 -241 62 -109 -10
-130 -15 -151 -35 -21 -20 -28 -22 -50 -12 -14 7 -54 12 -88 12 -70 0 -146
-30 -186 -73 l-24 -26 -34 29 c-18 16 -46 32 -61 35 -15 4 -35 8 -45 10 -9 2
-84 -1 -165 -7 -152 -10 -189 -21 -199 -58 -5 -17 -6 -17 -22 -1 -14 14 -41
19 -116 24 -98 6 -131 -1 -147 -28 -6 -10 -18 -8 -50 8 -35 18 -72 22 -235 30
-231 12 -248 8 -265 -59 -12 -42 -28 -60 -28 -30 0 8 -12 28 -26 45 -24 28
-31 31 -88 31 -42 0 -74 6 -101 20 -39 20 -161 28 -200 14 -22 -9 -45 -56 -46
-96 l-1 -33 -19 43 c-11 23 -30 48 -42 56 -27 17 -176 30 -196 17 -10 -6 -22
-3 -40 10 -35 25 -139 51 -174 43 -16 -3 -44 -20 -63 -36 l-34 -30 -28 27
c-40 41 -65 55 -124 71 -66 17 -144 17 -184 0z m209 -83 c73 -30 133 -133 160
-280 l7 -33 -54 0 -53 0 -16 58 c-23 85 -45 107 -101 107 -30 0 -50 -5 -57
-15 -16 -23 -2 -127 25 -186 29 -63 61 -86 113 -82 35 3 38 5 38 33 0 28 3 30
41 33 22 2 53 -2 68 -8 27 -10 28 -13 24 -61 -11 -111 -122 -160 -235 -104
-82 41 -138 130 -173 276 -21 91 -26 192 -10 234 21 54 124 67 223 28z m3189
0 c55 -49 -27 -333 -97 -333 -12 0 -14 -4 -5 -19 11 -22 13 -96 4 -153 -7 -38
-7 -38 -55 -38 -49 0 -49 0 -42 28 4 15 8 47 8 72 0 36 -4 46 -23 56 -43 21
-59 8 -71 -59 -20 -101 -16 -97 -73 -97 -47 0 -50 1 -44 23 3 12 27 117 52
232 70 319 55 283 122 290 31 3 64 8 72 9 49 11 135 5 152 -11z m-2847 -42
c23 -10 53 -32 67 -49 53 -63 94 -222 86 -333 -3 -48 -10 -65 -33 -89 -25 -26
-36 -30 -79 -30 -65 0 -108 26 -137 81 -35 69 -69 223 -69 311 0 70 3 82 25
103 30 31 82 33 140 6z m2450 7 c38 -17 50 -69 36 -162 -6 -42 -17 -91 -25
-110 -12 -29 -19 -34 -61 -39 -26 -4 -71 -7 -100 -7 -39 0 -54 -4 -59 -16 -22
-56 12 -100 69 -90 29 6 39 14 51 42 13 30 19 34 50 34 36 0 36 -1 30 -32 -18
-93 -68 -140 -154 -146 -134 -10 -165 54 -126 258 29 157 71 228 154 264 42
18 100 20 135 4z m-1858 -208 c6 -96 12 -199 12 -227 l1 -53 -49 0 c-60 0 -58
-5 -67 155 -8 139 -15 132 -40 -36 -9 -64 -20 -122 -24 -129 -16 -26 -37 0
-84 106 -27 60 -52 113 -56 117 -4 5 1 -34 10 -85 10 -51 20 -110 23 -130 l6
-38 -50 0 c-27 0 -49 1 -49 3 0 41 -63 364 -74 376 -8 9 -17 37 -21 64 l-7 47
68 0 69 -1 59 -122 59 -122 18 90 c10 50 18 102 19 117 0 44 18 54 96 48 l69
-5 12 -175z m1514 162 c27 -24 32 -36 36 -92 9 -117 -39 -279 -98 -336 -28
-27 -37 -29 -131 -34 -55 -3 -104 -2 -109 1 -13 8 48 471 63 481 7 4 57 8 110
8 93 0 99 -1 129 -28z m-291 -1 c0 -42 -61 -436 -69 -444 -4 -4 -32 -7 -61 -5
l-53 3 -38 111 c-39 117 -58 161 -59 134 -1 -35 -30 -273 -33 -276 -2 -2 -18
-1 -35 2 -38 8 -38 3 -17 194 18 168 18 170 0 170 -16 0 -19 19 -9 69 l7 32
80 -3 81 -3 43 -130 c23 -71 43 -125 43 -120 2 35 39 266 45 274 3 6 22 11 41
11 27 0 34 -4 34 -19z m-760 -8 c0 -10 3 -116 7 -235 l6 -218 -60 0 c-60 0
-61 0 -67 31 -3 17 -6 73 -7 123 -1 146 -12 146 -43 0 -16 -71 -31 -132 -35
-136 -3 -3 -18 -4 -33 -1 -24 5 -31 16 -62 107 l-35 101 6 -119 6 -119 -39 7
c-21 4 -40 9 -42 10 -2 3 -42 407 -42 434 0 8 20 12 65 12 l64 0 30 -97 c16
-54 33 -110 37 -126 12 -49 20 -37 42 61 41 180 36 170 90 175 108 8 112 8
112 -10z m211 -3 c65 -12 112 -56 130 -122 10 -37 8 -324 -3 -333 -2 -1 -22
-5 -45 -9 -41 -6 -43 -5 -43 20 l0 26 -19 -23 c-17 -21 -28 -24 -77 -23 -74 2
-99 27 -109 108 -15 118 10 149 129 156 76 5 81 7 84 28 2 13 -4 32 -14 43
-14 16 -31 19 -111 19 l-93 0 0 60 0 60 59 0 c32 0 83 -4 112 -10z m1354 -536
l81 -7 -128 -461 c-71 -253 -135 -485 -143 -513 l-16 -53 -113 0 -113 0 -18
63 c-29 102 -142 448 -169 512 l-24 60 -6 -55 c-3 -30 -8 -163 -10 -295 -3
-132 -9 -253 -14 -270 l-8 -30 -109 -3 c-59 -1 -111 1 -115 5 -6 7 20 421 44
691 l5 62 -242 -2 -242 -3 -3 -87 -3 -88 147 0 147 0 -7 -47 c-3 -27 -11 -77
-17 -112 l-11 -63 -129 7 -129 7 0 -66 0 -66 175 0 175 0 0 -62 c0 -35 3 -87
6 -115 l7 -53 -270 0 -270 0 -6 113 c-4 61 -7 144 -7 183 l0 71 -186 8 c-102
4 -187 5 -189 3 -1 -1 -1 -36 2 -75 l6 -73 138 0 c77 0 139 -1 140 -2 0 -2 4
-54 7 -116 l7 -112 -222 0 c-123 0 -223 1 -224 3 0 1 -23 169 -52 372 l-52
370 -51 3 -51 3 -5 -63 c-9 -105 -65 -185 -158 -227 -43 -19 -44 -20 -15 -21
75 -2 190 -89 244 -184 30 -51 73 -173 85 -233 l6 -33 -110 0 -109 0 -11 58
c-7 31 -16 78 -22 104 -21 101 -79 148 -184 148 -96 0 -99 -7 -64 -160 16 -69
29 -131 30 -137 0 -10 -24 -13 -90 -13 -49 0 -90 2 -90 4 0 3 -63 236 -140
518 -77 282 -140 516 -140 520 0 5 52 8 115 8 111 0 115 -1 120 -22 3 -13 23
-106 45 -207 52 -235 52 -236 110 -233 119 8 156 119 115 347 -8 44 -11 83 -6
88 4 4 207 6 452 5 l444 -3 8 -124 c4 -68 5 -126 3 -129 -3 -2 -75 -7 -161
-10 l-155 -5 0 -27 c0 -15 3 -55 6 -89 l7 -61 194 0 193 0 -6 214 -7 213 219
6 c120 4 356 8 523 9 l305 3 16 -55 c9 -30 47 -178 86 -327 38 -150 71 -273
74 -273 4 0 41 168 143 648 l9 42 51 0 c29 0 88 -3 132 -6z m-212 -1072 c3 7
6 3 6 -9 1 -17 -5 -23 -19 -23 -14 0 -20 7 -20 21 0 17 3 19 14 10 11 -9 15
-9 19 1z"/>
<path d="M3367 1783 c-3 -4 -8 -28 -12 -53 -3 -25 -9 -53 -11 -62 -5 -15 2
-18 40 -18 24 0 56 4 69 9 28 11 50 57 45 97 -3 28 -5 29 -65 32 -34 2 -63 -1
-66 -5z"/>
<path d="M700 1733 c0 -42 -14 -63 -42 -63 -26 0 -22 -12 12 -45 22 -21 30
-38 30 -64 0 -55 13 -66 34 -30 l18 31 34 -33 c39 -38 40 -36 15 29 -13 31
-16 54 -10 63 16 25 10 47 -14 53 -15 3 -30 20 -42 46 -25 55 -35 59 -35 13z"/>
<path d="M3033 1738 c-19 -23 -43 -77 -43 -94 0 -15 8 -16 66 -11 37 4 69 9
72 12 3 3 6 27 6 53 l1 47 -46 3 c-29 2 -50 -2 -56 -10z"/>
<path d="M2688 1712 l-36 -3 -12 -87 c-18 -138 -20 -127 24 -130 22 -2 49 -1
62 2 30 8 64 80 64 137 0 69 -23 88 -102 81z"/>
<path d="M1985 1571 c-56 -9 -65 -17 -65 -56 0 -77 111 -49 126 33 7 35 9 34
-61 23z"/>
</g>
</svg>
