<?xml version="1.0" encoding="UTF-8" standalone="no"?>
<!-- Created with Inkscape (http://www.inkscape.org/) -->

<svg
   width="135.73125mm"
   height="35.548527mm"
   viewBox="0 0 135.73125 35.548526"
   version="1.1"
   id="svg4515"
   inkscape:version="1.2.2 (732a01da63, 2022-12-09)"
   sodipodi:docname="ecwolf.svg"
   inkscape:export-filename="ecwolf.svg"
   inkscape:export-xdpi="96"
   inkscape:export-ydpi="96"
   xml:space="preserve"
   xmlns:inkscape="http://www.inkscape.org/namespaces/inkscape"
   xmlns:sodipodi="http://sodipodi.sourceforge.net/DTD/sodipodi-0.dtd"
   xmlns="http://www.w3.org/2000/svg"
   xmlns:svg="http://www.w3.org/2000/svg"
   xmlns:rdf="http://www.w3.org/1999/02/22-rdf-syntax-ns#"
   xmlns:cc="http://creativecommons.org/ns#"
   xmlns:dc="http://purl.org/dc/elements/1.1/"><defs
     id="defs4509"><inkscape:perspective
       sodipodi:type="inkscape:persp3d"
       inkscape:vp_x="0 : 148.49999 : 1"
       inkscape:vp_y="0 : 999.99996 : 0"
       inkscape:vp_z="210.00001 : 148.49999 : 1"
       inkscape:persp3d-origin="105 : 98.999996 : 1"
       id="perspective5098" /></defs><sodipodi:namedview
     id="base"
     pagecolor="#ffffff"
     bordercolor="#666666"
     borderopacity="1.0"
     inkscape:pageopacity="0.0"
     inkscape:pageshadow="2"
     inkscape:zoom="1.050338"
     inkscape:cx="199.93564"
     inkscape:cy="-62.836915"
     inkscape:document-units="mm"
     inkscape:current-layer="layer1"
     showgrid="false"
     inkscape:pagecheckerboard="true"
     inkscape:window-width="1366"
     inkscape:window-height="705"
     inkscape:window-x="-8"
     inkscape:window-y="-8"
     inkscape:window-maximized="1"
     inkscape:showpageshadow="2"
     inkscape:deskcolor="#d1d1d1" /><metadata
     id="metadata4512"><rdf:RDF><cc:Work
         rdf:about=""><dc:format>image/svg+xml</dc:format><dc:type
           rdf:resource="http://purl.org/dc/dcmitype/StillImage" /><dc:title /></cc:Work></rdf:RDF></metadata><g
     inkscape:label="Layer 1"
     inkscape:groupmode="layer"
     id="layer1"
     transform="translate(-41.497202,-61.321965)"><g
       id="text5080"
       style="font-size:16.9333px;line-height:1.25;font-family:'Segoe UI';-inkscape-font-specification:'Segoe UI';letter-spacing:0px;word-spacing:0px;stroke-width:0.264583" /><g
       style="font-style:normal;font-variant:normal;font-weight:normal;font-stretch:normal;font-size:50.79999924px;line-height:1.25;font-family:Impact;-inkscape-font-specification:Impact;letter-spacing:0px;word-spacing:0px;fill:#ffffff;fill-opacity:1;stroke:none;stroke-width:0.26458332"
       id="text5147" /><g
       aria-label="$"
       id="text305"
       style="font-size:32.8887px;font-family:Wolfenstein;-inkscape-font-specification:Wolfenstein;fill:#ffffff;stroke-width:0.126496"
       transform="translate(2.1305379,-0.52916667)"><path
         d="m 132.3319,78.870347 v 11.511045 l -4.60442,2.631095 v -4.27553 l -2.63109,1.644435 v 1.644434 l -4.27553,2.959983 v -6.248852 l -7.56441,4.27553 v -14.14214 l -8.87994,-1.644435 h 13.15548 v 11.511045 l 3.28887,-1.973322 v -9.537723 h 4.27553 V 88.40807 l 2.63109,-1.644435 v -9.537723 h 13.15548 z m 18.41767,-7.235514 -9.53772,1.315548 3.61776,2.959983 h -17.10213 v -5.591079 l -1.64443,-0.986661 6.24885,-1.644434 v 6.248852 h 6.57774 l -2.6311,-2.302209 z m -37.49312,2.302209 V 67.68819 l 6.24886,1.644434 -1.97332,0.986661 v 5.591079 h -16.77324 l 3.61776,-2.959983 -9.20884,-1.315548 h 13.81325 l -2.30221,2.302209 z m 11.83994,1.973322 h -4.27553 V 62.425998 l 6.24885,1.973322 -1.97332,0.986661 z"
         id="path719"
         style="fill:#ffffff" /></g><g
       aria-label="Ec      olf"
       id="text236"
       style="font-size:25.4px;font-family:Wolfenstein;-inkscape-font-specification:Wolfenstein;stroke-width:0.264583;fill:#ffffff"><path
         d="m 107.64106,77.567168 v 3.182058 h -1.73567 v 3.760613 h 1.73567 v 3.182058 h -1.73567 v 3.471336 h 1.73567 v 3.182058 h -5.207 V 77.567168 Z"
         style="font-size:28.9278px;fill:#ffffff"
         id="path310" /><path
         d="m 112.17072,85.060159 h -1.18534 v 7.112016 h 1.18534 v 2.173116 h -3.55601 V 82.887043 h 3.55601 z"
         style="font-size:19.7556px;fill:#ffffff"
         id="path312" /><path
         d="m 139.82863,92.172175 v -7.112016 h -0.79022 v 7.112016 z m 2.37067,-9.285132 v 11.458248 h -5.53156 V 82.887043 Z"
         style="font-size:19.7556px;fill:#ffffff"
         id="path314" /><path
         d="m 145.36019,95.925739 -2.37067,1.382892 v -15.80448 l 2.37067,-1.382892 z"
         style="font-size:19.7556px;fill:#ffffff"
         id="path316" /><path
         d="m 148.52109,94.937959 -2.37068,1.382892 v -19.7556 l 4.14868,-2.568228 1.778,1.778004 -1.97556,2.173116 -1.58044,-0.98778 v 2.765784 h 2.56822 l -2.56822,1.382892 z"
         style="font-size:19.7556px;fill:#ffffff"
         id="path318" /></g></g></svg>
