<?xml version="1.0" encoding="UTF-8" standalone="no"?>
<svg
   version="1.1"
   width="1000px"
   height="578px"
   style="shape-rendering:geometricPrecision; text-rendering:geometricPrecision; image-rendering:optimizeQuality; fill-rule:evenodd; clip-rule:evenodd"
   id="svg1704"
   sodipodi:docname="mario.svg"
   inkscape:version="1.2.2 (732a01da63, 2022-12-09)"
   xmlns:inkscape="http://www.inkscape.org/namespaces/inkscape"
   xmlns:sodipodi="http://sodipodi.sourceforge.net/DTD/sodipodi-0.dtd"
   xmlns="http://www.w3.org/2000/svg"
   xmlns:svg="http://www.w3.org/2000/svg">
  <defs
     id="defs1708" />
  <sodipodi:namedview
     id="namedview1706"
     pagecolor="#ffffff"
     bordercolor="#000000"
     borderopacity="0.25"
     inkscape:showpageshadow="2"
     inkscape:pageopacity="0.0"
     inkscape:pagecheckerboard="0"
     inkscape:deskcolor="#d1d1d1"
     showgrid="false"
     inkscape:zoom="0.9083045"
     inkscape:cx="459.64762"
     inkscape:cy="289.55048"
     inkscape:window-width="1366"
     inkscape:window-height="705"
     inkscape:window-x="-8"
     inkscape:window-y="-8"
     inkscape:window-maximized="1"
     inkscape:current-layer="svg1704" />
  <g
     id="g1666"
     style="fill:#ffffff">
    <path
       style="opacity:1;fill:#ffffff"
       fill="#f9faf9"
       d="M 251.5,76.5 C 256.511,76.3341 261.511,76.5007 266.5,77C 282.229,87.2351 297.229,98.4018 311.5,110.5C 303.223,123.923 294.056,136.59 284,148.5C 270.72,138.225 257.72,127.558 245,116.5C 241.102,121.346 237.769,126.346 235,131.5C 260.081,147.958 285.248,164.291 310.5,180.5C 311.428,181.768 311.595,183.101 311,184.5C 299.204,202.593 287.038,220.427 274.5,238C 246.775,237.82 219.108,236.82 191.5,235C 177.238,221.949 163.072,208.783 149,195.5C 149.044,193.721 149.711,192.055 151,190.5C 158.967,180.034 167.467,170.034 176.5,160.5C 190.833,171 205.167,181.5 219.5,192C 220.5,192.667 221.5,192.667 222.5,192C 226.4,188.19 230.066,184.19 233.5,180C 208.833,163.333 184.167,146.667 159.5,130C 158.446,128.612 158.28,127.112 159,125.5C 170.712,109.91 182.545,94.41 194.5,79C 213.581,77.8585 232.581,77.0252 251.5,76.5 Z"
       id="path1664" />
  </g>
  <g
     id="g1670"
     style="fill:#ffffff">
    <path
       style="opacity:1;fill:#ffffff"
       fill="#f9faf9"
       d="M 541.5,80.5 C 543.857,80.3367 546.19,80.5034 548.5,81C 565.92,91.4584 583.086,102.292 600,113.5C 600.167,115.5 600.333,117.5 600.5,119.5C 598.413,135.975 595.746,152.309 592.5,168.5C 583.938,176.565 574.938,184.065 565.5,191C 553.128,191.29 540.961,191.79 529,192.5C 530.081,205.44 530.581,218.44 530.5,231.5C 514.891,233.662 499.224,235.329 483.5,236.5C 479.777,211.163 475.944,185.83 472,160.5C 472.419,146.15 473.086,131.817 474,117.5C 471.358,115.249 468.358,113.582 465,112.5C 464.323,108.593 463.49,104.759 462.5,101C 463.274,98.5603 464.94,97.227 467.5,97C 492.426,92.0511 517.093,86.5511 541.5,80.5 Z M 522.5,124.5 C 531.739,126.809 541.072,128.809 550.5,130.5C 549.754,138.89 548.587,147.223 547,155.5C 540.879,157.802 534.545,159.469 528,160.5C 527.228,160.355 526.561,160.022 526,159.5C 524.576,147.851 523.409,136.184 522.5,124.5 Z"
       id="path1668" />
  </g>
  <g
     id="g1674"
     style="fill:#ffffff">
    <path
       style="opacity:1;fill:#ffffff"
       fill="#f9faf9"
       d="M 801.5,80.5 C 805.219,80.0025 808.553,80.8358 811.5,83C 826.99,94.5782 842.657,105.912 858.5,117C 859.097,118.062 859.43,119.228 859.5,120.5C 856.563,135.566 853.396,150.566 850,165.5C 842.529,170.642 835.362,176.142 828.5,182C 839.842,193.339 851.842,204.005 864.5,214C 866.515,215.555 866.848,217.389 865.5,219.5C 849.833,227.333 834.167,235.167 818.5,243C 816.559,243.743 814.726,243.576 813,242.5C 802.057,225.891 790.723,209.558 779,193.5C 778.824,207.075 778.324,220.575 777.5,234C 761.966,235.837 746.466,236.337 731,235.5C 728.456,207.675 725.956,179.842 723.5,152C 725.6,139.763 728.1,127.596 731,115.5C 734.581,104.602 730.748,99.2689 719.5,99.5C 718.986,97.4884 718.82,95.4884 719,93.5C 719.772,92.1509 720.939,91.3176 722.5,91C 749.008,87.7292 775.342,84.2292 801.5,80.5 Z M 776.5,122.5 C 785.895,124.682 795.228,127.182 804.5,130C 806.18,130.347 807.18,131.347 807.5,133C 806.064,140.555 804.397,148.055 802.5,155.5C 794.668,157.933 786.668,159.6 778.5,160.5C 777.991,147.821 777.325,135.154 776.5,122.5 Z"
       id="path1672" />
  </g>
  <g
     id="g1678"
     style="fill:#ffffff">
    <path
       style="opacity:1;fill:#ffffff"
       fill="#f9faf9"
       d="M 608.5,86.5 C 621.195,87.5959 633.862,89.0959 646.5,91C 674.032,95.5954 701.532,100.095 729,104.5C 726.871,120.521 723.704,136.355 719.5,152C 717.5,152.667 715.5,152.667 713.5,152C 696.183,146.837 678.85,141.67 661.5,136.5C 660.558,136.608 659.725,136.941 659,137.5C 658.442,140.934 657.609,144.267 656.5,147.5C 671.173,149.243 685.839,151.076 700.5,153C 700.122,165.588 697.789,177.921 693.5,190C 679.802,189.6 666.302,187.767 653,184.5C 652.393,188.537 652.56,192.537 653.5,196.5C 671.035,196.703 688.535,196.037 706,194.5C 707.894,194.58 709.727,194.913 711.5,195.5C 713.111,198.22 713.944,201.22 714,204.5C 714.936,215.881 716.103,227.214 717.5,238.5C 716.96,239.748 716.293,240.915 715.5,242C 677.261,239.926 639.094,237.092 601,233.5C 596.315,215.295 591.481,197.129 586.5,179C 590.005,175.152 593.172,170.986 596,166.5C 599.796,147.003 602.129,127.336 603,107.5C 604.947,100.498 606.781,93.4977 608.5,86.5 Z"
       id="path1676" />
  </g>
  <g
     id="g1682"
     style="fill:#ffffff">
    <path
       style="opacity:1;fill:#ffffff"
       fill="#f9faf9"
       d="M 311.5,92.5 C 334.4,94.2422 357.233,96.2422 380,98.5C 379.045,128.035 377.212,157.535 374.5,187C 374.404,189.375 374.904,191.541 376,193.5C 385.71,190.957 395.543,188.791 405.5,187C 406.126,186.25 406.626,185.416 407,184.5C 407.172,160.261 407.672,136.094 408.5,112C 428.819,113.665 449.152,115.665 469.5,118C 470,118.5 470.5,119 471,119.5C 468.111,146.831 464.777,174.164 461,201.5C 452.255,213.583 442.755,225.083 432.5,236C 404.479,237.341 376.479,238.841 348.5,240.5C 335.441,231.546 322.608,222.213 310,212.5C 309.333,206.833 309.333,201.167 310,195.5C 312.795,191.745 314.628,187.578 315.5,183C 315.518,180.621 314.851,178.454 313.5,176.5C 311.803,175.636 310.637,174.303 310,172.5C 309.333,156.167 309.333,139.833 310,123.5C 315.901,115.697 315.901,108.03 310,100.5C 309.133,97.4791 309.633,94.8124 311.5,92.5 Z"
       id="path1680" />
  </g>
  <g
     id="g1686"
     style="fill:#ffffff">
    <path
       style="opacity:1;fill:#ffffff"
       fill="#f9faf9"
       d="M 98.5,252.5 C 116.84,253.845 135.174,255.345 153.5,257C 159.569,275.781 165.402,294.614 171,313.5C 182.377,297.245 193.877,281.079 205.5,265C 217.194,265.753 228.861,267.086 240.5,269C 246.163,269.615 251.663,270.782 257,272.5C 266.093,337.771 274.593,403.105 282.5,468.5C 257.329,470.084 232.162,471.75 207,473.5C 205.439,473.397 203.939,473.063 202.5,472.5C 200.681,440.383 199.847,408.383 200,376.5C 187.401,387.535 174.568,398.202 161.5,408.5C 159.971,408.471 158.804,407.804 158,406.5C 149.333,392.5 140.667,378.5 132,364.5C 121.914,395.673 111.747,426.84 101.5,458C 99.8333,458.667 98.1667,458.667 96.5,458C 73.1373,447.568 49.9707,436.735 27,425.5C 26.3333,423.167 26.3333,420.833 27,418.5C 51.1407,363.227 74.974,307.893 98.5,252.5 Z"
       id="path1684" />
  </g>
  <g
     id="g1690"
     style="fill:#ffffff">
    <path
       style="opacity:1;fill:#ffffff"
       fill="#f9faf9"
       d="M 678.5,258.5 C 710.243,264.449 741.909,270.782 773.5,277.5C 761.985,344.24 750.152,410.906 738,477.5C 713.958,480.305 689.791,481.805 665.5,482C 664.892,480.769 664.559,479.436 664.5,478C 664.977,471.766 665.81,465.6 667,459.5C 668.828,457.919 670.828,456.585 673,455.5C 676.206,447.841 674.539,441.507 668,436.5C 671.051,377.111 674.551,317.777 678.5,258.5 Z"
       id="path1688" />
  </g>
  <g
     id="g1694"
     style="fill:#ffffff">
    <path
       style="opacity:1;fill:#ffffff"
       fill="#f9faf9"
       d="M 580.5,261.5 C 583.85,261.335 587.183,261.502 590.5,262C 613.578,278.956 636.745,295.789 660,312.5C 656.784,333.918 652.784,355.251 648,376.5C 637.59,384.621 627.09,392.621 616.5,400.5C 634.456,415.952 652.289,431.618 670,447.5C 670.667,448.5 670.667,449.5 670,450.5C 647.911,461.795 625.744,472.961 603.5,484C 601.833,484.667 600.167,484.667 598.5,484C 582.123,460.745 565.623,437.579 549,414.5C 548.827,433.74 548.327,452.907 547.5,472C 527.846,473.375 508.18,474.041 488.5,474C 487.691,468.583 487.191,463.083 487,457.5C 483.222,447.833 480.888,437.833 480,427.5C 475.794,377.485 471.794,327.485 468,277.5C 468.75,276.874 469.584,276.374 470.5,276C 507.369,271.618 544.036,266.784 580.5,261.5 Z M 547.5,317.5 C 561.369,321.734 575.202,326.067 589,330.5C 587.61,342.118 585.443,353.618 582.5,365C 572.132,367.009 561.799,369.175 551.5,371.5C 550.558,371.392 549.725,371.059 549,370.5C 548.499,354.48 547.666,338.48 546.5,322.5C 546.592,320.742 546.925,319.076 547.5,317.5 Z"
       id="path1692" />
  </g>
  <g
     id="g1698"
     style="fill:#ffffff">
    <path
       style="opacity:1;fill:#ffffff"
       fill="#f9faf9"
       d="M 316.5,266.5 C 351.139,270.635 385.806,274.801 420.5,279C 423.458,279.229 425.958,280.396 428,282.5C 446.877,344.546 465.377,406.713 483.5,469C 483.415,470.107 483.081,471.107 482.5,472C 455.847,475.236 429.18,477.903 402.5,480C 399.434,464.894 396.434,449.727 393.5,434.5C 391.833,434.167 390.167,433.833 388.5,433.5C 373.152,434.367 357.819,435.367 342.5,436.5C 339.943,450.842 337.276,465.175 334.5,479.5C 319.071,477.144 303.738,474.144 288.5,470.5C 286.265,450.153 283.765,429.819 281,409.5C 280.001,402.85 279.667,396.183 280,389.5C 291.981,348.415 304.148,307.415 316.5,266.5 Z M 364.5,334.5 C 367.167,334.5 369.833,334.5 372.5,334.5C 376.378,349.092 380.045,363.759 383.5,378.5C 382.5,378.833 381.5,379.167 380.5,379.5C 371.801,378.619 363.135,377.619 354.5,376.5C 358.422,362.65 361.756,348.65 364.5,334.5 Z"
       id="path1696" />
  </g>
  <g
     id="g1702"
     style="fill:#ffffff">
    <path
       style="opacity:1;fill:#ffffff"
       fill="#f9faf9"
       d="M 821.5,268.5 C 855.236,272.851 888.903,277.684 922.5,283C 944.106,303.77 964.773,325.27 984.5,347.5C 980.078,382.462 975.912,417.462 972,452.5C 971.955,455.334 971.121,457.834 969.5,460C 936.567,474.462 903.567,488.628 870.5,502.5C 836.402,489.42 802.569,476.087 769,462.5C 764.185,441.793 760.018,420.96 756.5,400C 760.387,375.791 764.554,351.624 769,327.5C 770.608,324.228 772.608,321.228 775,318.5C 790.705,301.964 806.205,285.297 821.5,268.5 Z M 883.5,347.5 C 885.624,348.031 887.124,349.365 888,351.5C 894.972,365.404 902.139,379.238 909.5,393C 897.903,404.271 886.069,415.105 874,425.5C 861.45,420.997 848.95,416.497 836.5,412C 834.652,395.915 833.485,379.748 833,363.5C 849.889,358.036 866.722,352.702 883.5,347.5 Z"
       id="path1700" />
  </g>
</svg>
