<?xml version="1.0" encoding="UTF-8" standalone="no"?>
<!-- Generator: Adobe Illustrator 15.0.2, SVG Export Plug-In . SVG Version: 6.00 Build 0)  -->

<svg
   version="1.1"
   id="Ebene_1"
   x="0px"
   y="0px"
   width="871px"
   height="512px"
   viewBox="0 0 871 512"
   enable-background="new 0 0 871 512"
   xml:space="preserve"
   sodipodi:docname="xbox360.svg"
   inkscape:version="1.2.2 (732a01da63, 2022-12-09)"
   xmlns:inkscape="http://www.inkscape.org/namespaces/inkscape"
   xmlns:sodipodi="http://sodipodi.sourceforge.net/DTD/sodipodi-0.dtd"
   xmlns="http://www.w3.org/2000/svg"
   xmlns:svg="http://www.w3.org/2000/svg"><defs
   id="defs490" /><sodipodi:namedview
   id="namedview488"
   pagecolor="#ffffff"
   bordercolor="#000000"
   borderopacity="0.25"
   inkscape:showpageshadow="2"
   inkscape:pageopacity="0.0"
   inkscape:pagecheckerboard="0"
   inkscape:deskcolor="#d1d1d1"
   showgrid="false"
   inkscape:zoom="1.0253906"
   inkscape:cx="400.33524"
   inkscape:cy="256.48762"
   inkscape:window-width="1366"
   inkscape:window-height="705"
   inkscape:window-x="-8"
   inkscape:window-y="-8"
   inkscape:window-maximized="1"
   inkscape:current-layer="Ebene_1" />
<g
   id="g2047"
   style="clip-rule:evenodd;fill:#ffffff;fill-rule:evenodd;image-rendering:optimizeQuality;shape-rendering:geometricPrecision;text-rendering:geometricPrecision"
   transform="matrix(1.297641,0,0,1.3222891,257.8891,30.286852)"><path
     style="opacity:1;fill:#ffffff"
     fill="#f9faf9"
     d="m 103.5,-0.5 c 8.333,0 16.667,0 25,0 16.984,2.30971 32.984,7.80971 48,16.5 -8.447,0.1183 -16.781,1.1183 -25,3 C 139.052,23.141 126.886,27.9743 115,33.5 104.018,27.4254 92.5179,22.592 80.5,19 72.5941,17.239 64.5941,16.0724 56.5,15.5 71.1802,6.94061 86.8468,1.60728 103.5,-0.5 Z"
     id="path2045" /></g><g
   id="g2051"
   style="clip-rule:evenodd;fill:#ffffff;fill-rule:evenodd;image-rendering:optimizeQuality;shape-rendering:geometricPrecision;text-rendering:geometricPrecision"
   transform="matrix(1.297641,0,0,1.3222891,257.8891,30.286852)"><path
     style="opacity:1;fill:#ffffff"
     fill="#f9faf9"
     d="m -0.5,127.5 c 0,-7.667 0,-15.333 0,-23 3.17912,-24.6953 12.6791,-46.6953 28.5,-66 2.4636,-3.2983 5.6303,-5.6316 9.5,-7 8.9345,1.9679 16.9345,5.8013 24,11.5 8.1387,6.3055 15.8054,13.1388 23,20.5 -21.079,25.7988 -38.9124,53.799 -53.5,84 -5.9343,12.665 -8.4343,25.665 -7.5,39 -6.4239,-7.836 -11.5905,-16.503 -15.5,-26 -3.93043,-10.856 -6.76376,-21.856 -8.5,-33 z"
     id="path2049" /></g><g
   id="g2055"
   style="clip-rule:evenodd;fill:#ffffff;fill-rule:evenodd;image-rendering:optimizeQuality;shape-rendering:geometricPrecision;text-rendering:geometricPrecision"
   transform="matrix(1.297641,0,0,1.3222891,257.8891,30.286852)"><path
     style="opacity:1;fill:#ffffff"
     fill="#f9faf9"
     d="m 192.5,31.5 c 1.808,-0.0086 3.475,0.4914 5,1.5 18.71,18.253 29.877,40.4196 33.5,66.5 4.211,32.159 -3.289,61.159 -22.5,87 0.671,-13.146 -1.829,-25.813 -7.5,-38 -14.473,-30.6 -32.306,-58.9329 -53.5,-85 12.507,-14.3985 27.507,-25.0651 45,-32 z"
     id="path2053" /></g><g
   id="g2075"
   style="clip-rule:evenodd;fill:#ffffff;fill-rule:evenodd;image-rendering:optimizeQuality;shape-rendering:geometricPrecision;text-rendering:geometricPrecision"
   transform="matrix(1.297641,0,0,1.3222891,257.8891,30.286852)"><path
     style="opacity:1;fill:#ffffff"
     fill="#f9faf9"
     d="m 125.5,232.5 c -7.333,0 -14.667,0 -22,0 -24.8696,-3.351 -46.7029,-13.351 -65.5,-30 -2.6336,-7.324 -2.3003,-14.657 1,-22 5.6655,-11.339 12.3322,-22.006 20,-32 14.7977,-18.465 31.2977,-35.298 49.5,-50.5 2.248,-1.9137 4.748,-3.4137 7.5,-4.5 28.199,21.195 51.865,46.529 71,76 4.637,7.578 7.47,15.745 8.5,24.5 0.233,3.459 -0.601,6.626 -2.5,9.5 -19.492,16.772 -41.992,26.438 -67.5,29 z"
     id="path2073" /></g>
<g
   id="layer1-7"
   transform="matrix(0.815409, 0, 0, 0.815409, 185.789, 684.815)"
   style="fill:#ffffff">
	<path
   id="path6955"
   fill="#9DA0A3"
   d="M768.724-261.163h-9.562v-5.859h26.087v5.859h-9.56v25.883h-6.965V-261.163"
   style="fill:#ffffff" />
	<path
   id="path6957"
   fill="#9DA0A3"
   d="M792.353-267.022h9.969l7.377,21.827l0,0l7.102-21.827h9.835v31.742h-6.556v-22.51h-0.137   l-7.787,22.51h-5.327l-7.785-22.277h-0.137v22.277h-6.556V-267.022"
   style="fill:#ffffff" />
	<path
   id="path6959"
   fill="#9DA0A3"
   d="M695.103-245.537c-10.654,0-19.67-3.51-26.499-10.352   c-15.162-15.148-17.347-43.203-17.347-58.569c0-20.748,4.235-68.922,43.845-68.922c39.611,0,43.98,48.174,43.98,68.922   C739.082-293.753,734.713-245.537,695.103-245.537L695.103-245.537z M695.103-397.613c-37.699-0.028-59.281,30.309-59.281,83.154   c0,52.818,21.581,83.141,59.281,83.141c21.443,0,37.424-9.343,47.532-27.755c9.698-17.565,11.746-39.815,11.746-55.386   C754.381-339.482,748.508-397.613,695.103-397.613"
   style="fill:#ffffff" />
	<path
   id="path6961"
   fill="#9DA0A3"
   d="M567.801-245.537c-22.398,0-40.02-18.042-40.02-41.031c0-23.875,17.21-41.905,40.02-41.905   c10.381,0,20.08,4.017,27.318,11.31c7.924,7.88,12.429,19.053,12.429,30.595C607.548-263.58,590.065-245.537,567.801-245.537z    M567.801-342.705c-17.073,0-32.916,8.387-42.478,22.236c1.911-30.144,11.61-62.912,44.255-62.912   c18.302,0,32.233,11.924,35.239,30.377l0.546,2.882h15.162l-0.273-3.825c-3.006-26.92-22.401-43.693-50.674-43.693   c-49.582,0-60.1,49.349-60.1,90.748c0,49.444,20.216,75.574,58.322,75.574c31.416,0,55.046-23.753,55.046-55.251   C622.847-319.089,599.764-342.705,567.801-342.705"
   style="fill:#ffffff" />
	<path
   id="path6963"
   fill="#9DA0A3"
   d="M472.055-320.306c13.385-6.159,21.852-19.545,21.852-35.306   c0-11.146-3.686-20.462-10.925-27.755c-9.152-9.234-24.451-14.533-41.524-14.533c-28.137,0-47.532,16.732-50.538,43.709   l-0.41,3.796h15.162l0.546-2.855c3.006-18.494,16.937-30.432,35.239-30.432c18.441,0,37.153,9.643,37.153,28.07   c0,7.866-2.46,14.259-7.375,18.93c-7.787,7.581-22.401,9.466-29.915,9.466c-2.731,0-6.692,0.068-10.654,0.081   c-0.137,3.852-0.137,11.269,0,14.997c2.46,0,10.654,0.014,10.654,0.014c14.206,0.123,25.27,3.073,32.236,9.575   c5.737,5.34,8.604,12.798,8.604,22.181c0,22.674-20.487,34.543-40.703,34.543c-13.248,0-24.039-4.029-31.277-11.582   c-7.238-7.458-10.791-18.235-10.245-31.074l0.137-3.593h-15.299l-0.137,3.305c-0.819,17.02,3.825,31.279,13.251,41.236   c9.969,10.422,25.131,15.941,43.57,15.941c34.01,0,56.001-19.136,56.001-48.776C497.459-299.121,487.761-313.954,472.055-320.306"
   style="fill:#ffffff" />
	<path
   id="path6965"
   fill="#95C343"
   d="M347.077-235.28l-61.055-83.112l55.728-75.534h-20.899l-45.347,61.615l-45.347-61.615h-20.76   l55.589,75.546l-60.917,83.1h20.896l50.538-68.785l50.674,68.785H347.077"
   style="fill:#ffffff" />
	<path
   id="path6967"
   fill="#95C343"
   d="M-68.696-235.28l-60.918-83.112l55.591-75.534h-20.762l-45.347,61.615l-45.347-61.615   h-20.898l55.728,75.546l-61.054,83.1h20.898l50.674-68.785l50.537,68.785H-68.696"
   style="fill:#ffffff" />
	<path
   id="path6969"
   fill="#95C343"
   d="M4.379-251.848c0,0-39.338,0-46.577,0v-57.721c7.239,0,46.577,0,46.577,0   c17.756,0,38.791,4.848,38.791,27.604C43.17-255.795,18.857-251.848,4.379-251.848z M-42.198-377.358c7.239,0,46.577,0,46.577,0   c12.566,0,33.737,3.169,33.737,25.228c0,16.69-12.293,26.607-33.737,26.607c0,0-39.338,0-46.577,0V-377.358z M47.267-312.382   c-3.278-2.855-6.83-5.013-10.381-6.625c11.473-6.255,18.986-18.029,18.986-31.757c0-10.121-3.689-43.162-51.494-43.162h-64.333   v68.43c0,0-20.762,0-21.444,0c-2.868,3.606-9.152,12.32-11.61,15.884c2.322,0,33.054,0,33.054,0v74.331H4.379   c34.966,0,56.684-17.742,56.684-46.316C61.063-294.08,56.282-304.707,47.267-312.382"
   style="fill:#ffffff" />
	<path
   id="path6971"
   fill="#95C343"
   d="M144.791-248.569c-34.01,0-57.778-27.168-57.778-66.123   c0-38.914,23.767-66.081,57.778-66.081c33.873,0,57.504,27.167,57.504,66.081C202.295-275.737,178.663-248.569,144.791-248.569z    M144.791-397.559c-44.663,0-75.807,34.066-75.807,82.868c0,48.83,31.143,82.909,75.807,82.909   c44.39,0,75.534-34.079,75.534-82.909C220.324-363.494,189.181-397.559,144.791-397.559"
   style="fill:#ffffff" />
</g>
</svg>
